<?xml version="1.0" encoding="utf-8"?>
<!-- Generator: Adobe Illustrator 16.0.0, SVG Export Plug-In . SVG Version: 6.00 Build 0)  -->
<!DOCTYPE svg PUBLIC "-//W3C//DTD SVG 1.1//EN" "http://www.w3.org/Graphics/SVG/1.1/DTD/svg11.dtd">
<svg version="1.1" id="圖層_1" xmlns="http://www.w3.org/2000/svg" xmlns:xlink="http://www.w3.org/1999/xlink" x="0px" y="0px"
	 width="415px" height="440px" viewBox="0 0 415 440" enable-background="new 0 0 415 440" xml:space="preserve">
<g>
	<g>
		<path fill="#F3F8F4" d="M345.819,426.576c0,4.4,3.6,8,8,8h48.079c4.4,0,8-3.6,8-8V101.777c0-4.4-3.6-8-8-8h-48.079
			c-4.4,0-8,3.6-8,8V426.576z"/>
	</g>
	<g>
		<g>
			<g>
				<g>
					<path fill="#FFAC9D" d="M295.431,178.879c0,0-19.315,13.635-27.269,8.522l-49.426,40.333
						C218.736,227.735,287.476,220.349,295.431,178.879z"/>
					<path fill="#FFAC9D" d="M210.984,189.478c0,0,15.947,32.274,21.389,43.369c5.438,11.096,52.074-5.183,46.015-33.517
						c0,0-20.719-20.862-22.521-53.17C254.062,113.852,210.984,189.478,210.984,189.478z"/>
					<path fill="#F8897E" d="M238.676,154.589c-1.297-0.534-2.605-1.047-3.911-1.562c-11.654,15.162-23.78,36.451-23.78,36.451
						s8.101,14.949,13.545,25.991c11.961-2.369,35.17-26.108,32.179-50.472c-0.945-1.908-1.583-1.393-2.372-3.371
						C249.702,158.374,243.816,156.706,238.676,154.589z"/>
				</g>
				<g>
					<path fill="#A9534F" d="M176.017,84.608c0,0-3.553,19.124-1.914,41.797c1.058,14.647,15.025-42.616,15.025-42.616
						L176.017,84.608z"/>
					<path fill="#FFAC9D" d="M227.513,72.566c0,0-51.012-2.003-53.453,46.951c-2.442,48.955,12.61,94.165,49.148,78.814
						C259.747,182.979,296.454,87.951,227.513,72.566z"/>
					<path fill="#FFAC9D" d="M254.226,152.157c0,0,6.412-30.4,18.435-24.506C284.684,133.546,274.118,169.675,254.226,152.157z"/>
					<path fill="#A9534F" d="M241.853,98.813c0.635-5.5,0.148-8.728,0.273-8.741c13.796-1.335,24.775,5.37,38.639,5.97
						c1.005,11.064-0.774,23.042-7.495,32.276c0,0-2.579-1.492-6.352-0.685c0,0-8.15,3.235-9.857,19.328l-7.373-0.933l3.95-23.446
						C253.638,122.582,243.057,117.809,241.853,98.813z"/>
					<path fill="#A9534F" d="M244.038,91.439c0,0-30.049,15.297-52.997,4.369l15.024-2.458c0,0-33.874,0.272-38.243-15.299
						l4.096,2.186c0,0-6.556-8.195,0.273-21.307c0,0,1.912,7.921,13.659,6.557c11.747-1.367,34.094-27.803,62.559-10.655
						c22.675,13.66,14.753,36.333,14.753,36.333l-10.107-9.289c0,0,8.741-20.216,18.029-13.385
						c7.677,5.646,19.546,31.447,1.576,59.159L244.038,91.439z"/>
				</g>
			</g>
			<g>
				<g>
					<path fill="#F8897E" d="M205.953,157.742c0,0-0.629-0.073-1.693-0.388c-0.528-0.168-1.171-0.381-1.876-0.716
						c-0.707-0.327-1.498-0.751-2.242-1.4c-0.747-0.633-1.485-1.479-1.916-2.583c-0.087-0.282-0.176-0.568-0.265-0.857
						c-0.039-0.3-0.078-0.604-0.118-0.912c-0.013-0.664,0.058-1.17,0.085-1.779c0.035-1.169,0.254-2.401,0.439-3.645
						c0.178-1.255,0.418-2.491,0.658-3.726c0.966-4.948,2.213-9.822,3.238-13.454c0.503-1.818,0.988-3.316,1.305-4.371
						c0.326-1.052,0.536-1.646,0.536-1.646s-0.106,0.621-0.292,1.707c-0.2,1.082-0.485,2.627-0.828,4.481
						c-0.362,1.849-0.772,4.007-1.255,6.31c-0.231,1.152-0.471,2.343-0.714,3.553c-0.265,1.206-0.485,2.438-0.724,3.667
						c-0.254,1.228-0.506,2.455-0.69,3.646c-0.185,1.201-0.471,2.356-0.542,3.544c-0.051,0.564-0.133,1.212-0.158,1.677
						c0.017,0.256,0.034,0.51,0.051,0.76c0.06,0.244,0.119,0.484,0.178,0.722c0.31,0.934,0.879,1.727,1.511,2.363
						c1.287,1.272,2.721,1.982,3.707,2.425C205.347,157.558,205.953,157.742,205.953,157.742z"/>
				</g>
				<g>
					<path fill="#F8897E" d="M261.616,153.163c0.961-0.528,1.874-1.137,2.648-1.873c0.759-0.735,1.404-1.621,1.527-2.575
						c0.028-0.236,0.021-0.472-0.004-0.705c-0.037-0.232-0.092-0.461-0.182-0.684c-0.092-0.22-0.191-0.441-0.333-0.646
						c-0.125-0.21-0.282-0.406-0.444-0.6c-0.328-0.382-0.7-0.74-1.1-1.073c-0.403-0.331-0.833-0.635-1.271-0.931l-0.303-0.204
						l0.046-0.374c0.122-0.988,0.314-1.935,0.526-2.892c0.222-0.952,0.457-1.905,0.785-2.837c0.32-0.933,0.691-1.857,1.183-2.747
						c0.242-0.446,0.525-0.878,0.866-1.283c0.337-0.404,0.726-0.794,1.226-1.083c0.49-0.291,1.101-0.465,1.693-0.415
						c0.316,0.019,0.536,0.084,0.884,0.202l0.652,0.308c0.461,0.269,0.939,0.633,1.263,1.044c0.337,0.416,0.583,0.894,0.752,1.384
						c0.341,0.985,0.354,2.009,0.249,2.982c-0.112,0.976-0.346,1.928-0.711,2.823c0.189-0.945,0.299-1.9,0.289-2.844
						c-0.019-0.941-0.169-1.876-0.526-2.689c-0.184-0.404-0.422-0.771-0.719-1.075c-0.304-0.324-0.616-0.524-0.988-0.727
						l-0.672-0.264c-0.113-0.014-0.359-0.086-0.526-0.069c-0.368-0.005-0.719,0.102-1.047,0.312
						c-0.659,0.427-1.171,1.195-1.595,1.987c-0.429,0.8-0.769,1.67-1.059,2.56c-0.589,1.774-1.02,3.642-1.336,5.487l-0.256-0.578
						c0.457,0.336,0.907,0.682,1.336,1.064c0.424,0.387,0.836,0.798,1.186,1.276c0.175,0.239,0.344,0.483,0.482,0.752
						c0.152,0.257,0.265,0.548,0.361,0.838c0.096,0.293,0.149,0.603,0.176,0.914c0.016,0.314-0.013,0.627-0.077,0.931
						c-0.284,1.229-1.137,2.129-2.032,2.788C263.658,152.313,262.663,152.823,261.616,153.163z"/>
				</g>
				
					<ellipse transform="matrix(0.9999 0.0102 -0.0102 0.9999 1.3379 -2.3196)" fill="#352836" cx="227.098" cy="129.436" rx="2.455" ry="5.613"/>
				
					<ellipse transform="matrix(1 0.0099 -0.0099 1 1.3007 -1.913)" fill="#352836" cx="192.985" cy="129.816" rx="2.455" ry="5.614"/>
				<path fill="#FFFFFF" d="M193.774,167.656c0,0,15.843,19.124,33.328-2.731"/>
				<g>
					<path fill="#352836" d="M213.612,119.01c0,0,0.751-1.159,2.398-2.384c0.418-0.29,0.863-0.635,1.391-0.899
						c0.51-0.301,1.074-0.577,1.683-0.814c0.598-0.261,1.266-0.419,1.933-0.601c0.689-0.096,1.382-0.273,2.102-0.25h1.071
						c0.355,0.023,0.707,0.097,1.056,0.146c0.706,0.067,1.362,0.314,1.991,0.537c0.647,0.178,1.18,0.569,1.707,0.854
						c0.544,0.267,0.963,0.66,1.353,1.003c0.384,0.35,0.765,0.626,1.007,0.977c0.265,0.324,0.476,0.62,0.65,0.859
						c0.348,0.479,0.519,0.765,0.519,0.765s-0.316-0.15-0.822-0.431c-0.252-0.142-0.56-0.308-0.889-0.514
						c-0.319-0.224-0.764-0.344-1.176-0.563c-0.429-0.196-0.872-0.431-1.383-0.572c-0.505-0.148-1.002-0.382-1.563-0.456
						c-0.549-0.112-1.102-0.259-1.688-0.277c-0.289-0.027-0.58-0.053-0.872-0.08l-0.888,0.021c-0.592-0.041-1.184,0.117-1.772,0.143
						c-0.579,0.126-1.166,0.192-1.72,0.349c-0.557,0.145-1.106,0.27-1.614,0.448c-0.517,0.154-0.993,0.343-1.45,0.493
						c-0.889,0.347-1.652,0.645-2.18,0.88C213.919,118.876,213.612,119.01,213.612,119.01z"/>
				</g>
				<g>
					<path fill="#352836" d="M180.118,120.077c0,0,0.751-1.159,2.398-2.384c0.418-0.29,0.863-0.635,1.391-0.899
						c0.509-0.301,1.074-0.577,1.682-0.814c0.598-0.261,1.266-0.419,1.933-0.6c0.689-0.096,1.382-0.273,2.102-0.25h1.07
						c0.355,0.023,0.708,0.096,1.056,0.145c0.706,0.068,1.362,0.315,1.991,0.537c0.647,0.178,1.179,0.569,1.707,0.854
						c0.544,0.267,0.962,0.66,1.353,1.003c0.383,0.35,0.764,0.626,1.006,0.976c0.265,0.324,0.476,0.62,0.651,0.859
						c0.347,0.479,0.519,0.765,0.519,0.765s-0.316-0.149-0.823-0.431c-0.252-0.142-0.559-0.308-0.889-0.514
						c-0.319-0.224-0.764-0.344-1.175-0.563c-0.428-0.196-0.872-0.431-1.383-0.572c-0.505-0.148-1.002-0.382-1.563-0.456
						c-0.549-0.112-1.102-0.259-1.688-0.277c-0.289-0.026-0.58-0.053-0.872-0.08l-0.887,0.021c-0.592-0.041-1.184,0.117-1.772,0.143
						c-0.579,0.126-1.166,0.192-1.72,0.35c-0.557,0.145-1.106,0.269-1.614,0.448c-0.516,0.154-0.993,0.343-1.45,0.493
						c-0.889,0.347-1.652,0.645-2.179,0.88C180.425,119.943,180.118,120.077,180.118,120.077z"/>
				</g>
			</g>
		</g>
		<g>
			<g>
				<path fill="#FFA655" d="M219.876,224.328c0.469-0.371,0.884-0.738,1.263-1.102c24.921,5.594,57.274-15.086,62.292-39.828
					c5.719-2.45,13.309-6.602,22.794-10.199c16.474-6.249,39.197,7.954,39.197,7.954v244.276c0,0-149.977-110.208-157.93-139.181
					C179.54,257.274,211.921,230.576,219.876,224.328z"/>
				<path opacity="0.2" fill="#330B04" d="M272.829,305.27c14.21-22.642,30.63-43.698,43.476-67.242
					c10.352-18.968,18.883-38.767,23.864-59.722c3.244,1.595,5.253,2.847,5.253,2.847v244.276c0,0-54.188-39.82-99.146-77.883
					C256.275,333.615,264.687,318.248,272.829,305.27z"/>
			</g>
			<path fill="#FFA655" d="M176.069,304.191l45.878,42.268c0,0,47.578-41.416,12.271-93.586
				C198.909,200.705,176.069,304.191,176.069,304.191z"/>
			<path fill="#FFAC9D" d="M179.216,307.32l41.234,36.726c0,0-58.031,56.459-80.883,50.445
				c-16.681-4.39-190.301-169.673-112.387-109.173c0,0-50.272-50.641,0.901-10.186c0,0-50.472-48.377,6.825-6.239
				c0,0-44.082-43.25,15.794,1.967c0,0-10.944-37.467,8.754,4.196c0,0,80.426,57.871,82.491,60.333
				C144.008,337.854,179.216,307.32,179.216,307.32z"/>
			<path fill="#F8897E" d="M200.13,339.522c3.827,3.901,7.848,8.093,12.083,12.181c5.087-4.596,8.237-7.657,8.237-7.657
				l-41.234-36.726c0,0-1.195,1.035-3.143,2.698C184.58,319.265,191.365,330.584,200.13,339.522z"/>
			<path fill="#FFAC9D" d="M341.559,120.887c0,0,34.271-1.144,28.561,4.188c-5.712,5.331-22.85,4.188-22.85,4.188
				s30.846,2.285,27.797,5.712c-3.044,3.427-28.938,3.047-28.938,3.047s33.51,3.046,25.514,7.996
				c-7.996,4.95-26.274,2.286-26.274,2.286s28.924,0.913,22.465,4.949c-6.091,3.808-41.506,7.996-32.747-2.285
				c0,0-6.854-8.757-1.523-16.373C333.562,134.594,329.375,125.835,341.559,120.887z"/>
			<path fill="#FFAC9D" d="M344.986,155.918l0.761,12.566c0,0-14.85-2.286-14.089-25.133
				C332.419,120.505,344.986,155.918,344.986,155.918z"/>
		</g>
	</g>
	<g>
		
			<ellipse transform="matrix(0.9664 0.2571 -0.2571 0.9664 26.5726 -56.4566)" fill="#493127" cx="229.187" cy="73.39" rx="74.988" ry="21.52"/>
		<path fill="#E8B521" d="M279.772,65.225l-4.229,15.904c-1.342,5.043-23.011,3.657-48.394-3.097
			c-25.387-6.753-44.877-16.317-43.535-21.36l4.229-15.905c0.128-0.479,0.267-0.959,0.41-1.438
			c7.336-24.511,32.88-38.92,57.786-32.296c24.901,6.625,39.907,31.823,34.097,56.742C280.021,64.258,279.902,64.743,279.772,65.225
			z"/>
		<path fill="#F9D02B" d="M279.772,65.225l-1.884,7.086c-1.342,5.043-23.011,3.655-48.394-3.097
			c-25.384-6.754-44.877-16.317-43.535-21.359l1.884-7.088c0.128-0.479,0.267-0.959,0.41-1.438
			c7.336-24.511,32.88-38.92,57.786-32.296c24.901,6.625,39.907,31.823,34.097,56.742C280.021,64.258,279.902,64.743,279.772,65.225
			z"/>
		<path fill="#6B4E32" d="M280.137,63.775c-2.071,4.707-23.394,3.245-48.295-3.38c-24.901-6.625-44.129-15.952-43.588-21.066
			c7.336-24.511,32.88-38.92,57.786-32.296C270.941,13.659,285.948,38.857,280.137,63.775z"/>
		<circle fill="#493127" cx="223.519" cy="17.459" r="1.634"/>
		<path fill="#493127" d="M242.438,22.492c-0.231,0.872-1.124,1.393-1.998,1.16c-0.87-0.23-1.389-1.126-1.157-1.999
			c0.235-0.873,1.127-1.391,1.998-1.16C242.153,20.728,242.67,21.62,242.438,22.492z"/>
		<path fill="#493127" d="M245.032,12.746c-0.233,0.874-1.124,1.391-1.999,1.159c-0.869-0.231-1.389-1.125-1.156-1.999
			c0.231-0.872,1.127-1.391,1.997-1.16C244.748,10.978,245.263,11.875,245.032,12.746z"/>
		<circle fill="#493127" cx="258.205" cy="26.685" r="1.633"/>
		<path fill="#493127" d="M213.263,26.881c-0.231,0.873-1.128,1.391-2.001,1.161c-0.869-0.232-1.39-1.129-1.158-2.001
			c0.231-0.868,1.128-1.387,1.999-1.157C212.975,25.116,213.495,26.013,213.263,26.881z"/>
		<circle fill="#493127" cx="229.027" cy="31.077" r="1.634"/>
		<circle fill="#493127" cx="246.369" cy="35.689" r="1.635"/>
		<circle fill="#493127" cx="263.713" cy="40.303" r="1.634"/>
		<path fill="#493127" d="M201.428,35.887c-0.233,0.87-1.129,1.389-1.998,1.16c-0.874-0.233-1.393-1.129-1.162-2
			c0.23-0.871,1.13-1.391,2.001-1.158C201.14,34.118,201.659,35.015,201.428,35.887z"/>
		<path fill="#493127" d="M218.769,40.503c-0.23,0.869-1.127,1.388-1.998,1.156c-0.873-0.231-1.392-1.128-1.162-1.999
			c0.234-0.871,1.13-1.391,2.001-1.16C218.482,38.733,219,39.629,218.769,40.503z"/>
		<path fill="#493127" d="M236.113,45.117c-0.231,0.869-1.13,1.388-1.999,1.156c-0.875-0.232-1.394-1.126-1.163-1.998
			c0.234-0.873,1.129-1.393,2.004-1.161C235.823,43.347,236.348,44.244,236.113,45.117z"/>
		<circle fill="#493127" cx="252.167" cy="49.386" r="1.634"/>
		<path fill="#493127" d="M271.087,54.421c-0.231,0.868-1.126,1.389-1.999,1.158c-0.872-0.233-1.389-1.128-1.158-1.998
			c0.233-0.871,1.126-1.392,1.998-1.161C270.802,52.651,271.317,53.548,271.087,54.421z"/>
	</g>
	<text transform="matrix(1 0 0 1 360.5166 204.9521)"><tspan x="0" y="0" fill="#626262" font-family="'NotoSansCJKtc-Light-B5pc-H'" font-size="31.797">我</tspan><tspan x="0" y="57.635" fill="#626262" font-family="'NotoSansCJKtc-Light-B5pc-H'" font-size="31.797">要</tspan><tspan x="0" y="115.271" fill="#626262" font-family="'NotoSansCJKtc-Light-B5pc-H'" font-size="31.797">開</tspan><tspan x="0" y="172.906" fill="#626262" font-family="'NotoSansCJKtc-Light-B5pc-H'" font-size="31.797">團</tspan></text>
</g>
</svg>
