<?xml version="1.0" encoding="utf-8"?>
<!-- Generator: Adobe Illustrator 16.0.0, SVG Export Plug-In . SVG Version: 6.00 Build 0)  -->
<!DOCTYPE svg PUBLIC "-//W3C//DTD SVG 1.1//EN" "http://www.w3.org/Graphics/SVG/1.1/DTD/svg11.dtd">
<svg version="1.1" id="圖層_1" xmlns="http://www.w3.org/2000/svg" xmlns:xlink="http://www.w3.org/1999/xlink" x="0px" y="0px"
	 width="1920px" height="750px" viewBox="0 0 1920 750" enable-background="new 0 0 1920 750" xml:space="preserve">
<rect x="-26.918" y="-32.227" display="none" fill="#B0DBDE" width="2016.129" height="1696.638"/>
<g>
	<path fill="#4A8028" d="M1165.946,328.832c0.092-39.552,7.614-71.498,16.884-71.498s16.79,31.946,16.881,71.498H1165.946z"/>
	<polygon fill="#9EC92F" points="1194.951,314.268 1184.848,326.158 1184.918,328.832 1181.613,328.832 1182.02,314.964 
		1171.669,302.789 1182.131,311.186 1182.911,284.58 1178.118,278.94 1182.963,282.828 1183.363,269.176 1184.025,294.653 
		1189.761,290.05 1184.08,296.733 1184.75,322.458 	"/>
</g>
<g>
	<path fill="#60A32B" d="M1194.199,328.832c0.042-29.043,5.559-52.53,12.36-52.53c6.801,0,12.318,23.487,12.36,52.53H1194.199z"/>
	<polygon fill="#9EC92F" points="1215.434,317.987 1208.036,326.69 1208.092,328.832 1205.664,328.832 1205.966,318.497 
		1198.389,309.58 1206.046,315.729 1206.62,296.25 1203.109,292.121 1206.656,294.968 1206.949,284.972 1207.436,303.624 
		1211.634,300.253 1207.477,305.144 1207.967,323.984 	"/>
</g>
<g>
	<g>
		<path fill="#F7CC5E" d="M1285.959,331.068c0,0-30.77-36.993-38.973-58.255c-8.205,21.262-38.975,58.255-38.975,58.255H1285.959z"
			/>
		<path fill="#717071" d="M1252.047,331.068c0,0-3.996-24.122-5.061-37.985c-1.064,13.863-5.061,37.985-5.061,37.985H1252.047z"/>
		<path fill="#F1A900" d="M1246.986,272.813c0,0-0.35,31.742,14.658,56.193l-9.598,2.062
			C1252.047,331.068,1244.543,289.756,1246.986,272.813z"/>
		<path fill="#F1A900" d="M1247.109,272.813c0,0,0.348,31.742-14.66,56.193l9.598,2.062
			C1242.047,331.068,1249.551,289.756,1247.109,272.813z"/>
		<path fill="#F1A900" d="M1253.008,282.914c0,0-4.754-6.718-6.021-10.579c-1.27,3.861-6.021,10.579-6.021,10.579H1253.008z"/>
	</g>
</g>
<path fill="#E66324" d="M1307.041,233.229c-8.002,0-14.49,6.488-14.49,14.491c0,8.002,14.49,25.287,14.49,25.287
	s14.49-17.285,14.49-25.287C1321.531,239.717,1315.043,233.229,1307.041,233.229z M1307.041,255.041
	c-4.043,0-7.322-3.278-7.322-7.32c0-4.044,3.279-7.322,7.322-7.322c4.045,0,7.32,3.278,7.32,7.322
	C1314.361,251.762,1311.086,255.041,1307.041,255.041z"/>
<path fill="#E66324" d="M1246.987,213.567c-10.089,0-18.268,8.181-18.268,18.269c0,10.087,18.268,31.873,18.268,31.873
	s18.264-21.786,18.264-31.873C1265.251,221.748,1257.073,213.567,1246.987,213.567z M1246.987,241.063
	c-5.099,0-9.229-4.132-9.229-9.228c0-5.098,4.13-9.229,9.229-9.229c5.096,0,9.229,4.131,9.229,9.229
	C1256.216,236.931,1252.083,241.063,1246.987,241.063z"/>
<g>
	<g>
		<path fill="#F1A900" d="M1259.08,368.125c0,0,47.419-57.01,60.061-89.775c12.648,32.766,60.065,89.775,60.065,89.775H1259.08z"/>
		<path fill="#717071" d="M1311.344,368.125c0,0,6.158-37.175,7.797-58.539c1.645,21.364,7.801,58.539,7.801,58.539H1311.344z"/>
		<path fill="#F7CC5E" d="M1319.141,278.35c0,0,0.539,48.918-22.592,86.599l14.795,3.176
			C1311.344,368.125,1322.91,304.463,1319.141,278.35z"/>
		<path fill="#F7CC5E" d="M1318.953,278.35c0,0-0.537,48.918,22.594,86.599l-14.792,3.176
			C1326.755,368.125,1315.189,304.463,1318.953,278.35z"/>
		<path fill="#F7CC5E" d="M1309.863,293.916c0,0,7.326-10.355,9.277-16.305c1.955,5.949,9.279,16.305,9.279,16.305H1309.863z"/>
	</g>
</g>
<path fill="#839F00" d="M1299.467,363.53c41.429,0,80.282,2.062,113.794,5.669c-23.264,2.101-67.314,3.521-117.831,3.521
	c-47.377,0-89.064-1.249-113.256-3.139C1216.469,365.74,1256.585,363.53,1299.467,363.53z"/>
<g>
	<g>
		<path fill="none" stroke="#23A098" stroke-width="3" stroke-linecap="round" stroke-linejoin="round" d="M1279.597,454.664
			c0,0-2.151,0.045-5.995,0.107"/>
		
			<path fill="none" stroke="#23A098" stroke-width="3" stroke-linecap="round" stroke-linejoin="round" stroke-dasharray="12.1042,12.1042" d="
			M1261.503,454.942c-36.843,0.445-119.971,0.809-154.187-4.303c-46.202-6.906-21.898-23.906,13.754-26.773
			c35.656-2.865,220.24,9.983,220.236-6.919c-0.004-17.076-245.433-1.688-227.143-15.561
			c18.289-13.872,211.348,1.833,185.276-14.064c0,0-14.388-4.021-37.426-4.226"/>
		<path fill="none" stroke="#23A098" stroke-width="3" stroke-linecap="round" stroke-linejoin="round" d="M1255.953,383.13
			c-1.949,0.04-3.95,0.108-6,0.208"/>
	</g>
</g>
<g>
	<path fill="#85A100" d="M1319.453,467.448c0,1.491-6.06,2.7-13.537,2.7c-7.475,0-13.533-1.209-13.533-2.7
		c0-1.496,6.059-2.705,13.533-2.705C1313.394,464.743,1319.453,465.952,1319.453,467.448z"/>
	<path fill="#85A100" d="M1409.152,446.26c0,1.491-6.06,2.7-13.537,2.7c-7.475,0-13.533-1.209-13.533-2.7
		c0-1.496,6.059-2.705,13.533-2.705C1403.093,443.555,1409.152,444.764,1409.152,446.26z"/>
	<ellipse fill="#85A100" cx="1347.977" cy="459.917" rx="18.595" ry="3.712"/>
</g>
<g>
	<g>
		
			<rect x="1179.245" y="407.763" transform="matrix(0.8353 0.5498 -0.5498 0.8353 421.8202 -585.1837)" fill="#66534E" width="16.772" height="7.397"/>
		
			<rect x="1180.943" y="408.272" transform="matrix(-0.8352 -0.5499 0.5499 -0.8352 1957.7898 1404.5155)" fill="#463835" width="16.722" height="1.383"/>
	</g>
	<g>
		
			<rect x="1167.33" y="397.832" transform="matrix(0.8353 0.5498 -0.5498 0.8353 415.5116 -579.8989)" fill="#AEACAA" width="16.769" height="11.569"/>
		<polygon fill="#878583" points="1175.374,396.469 1174.547,399.606 1183.907,406.423 1183.907,406.423 1185.899,403.396 		"/>
	</g>
	<g>
		
			<rect x="1119.103" y="351.05" transform="matrix(0.8352 0.5499 -0.5499 0.8352 386.9808 -557.0888)" fill="#AEACAA" width="8.097" height="32.385"/>
		<polygon fill="#878583" points="1128.674,351.492 1122.022,361.593 1122.022,361.593 1128.487,366.349 1128.979,365.751 
			1135.437,355.944 		"/>
	</g>
	<g>
		<polygon fill="#66534E" points="1133.316,359.165 1119.748,379.775 1168.571,408.685 1177.898,394.514 		"/>
		<polygon fill="#453631" points="1133.316,359.165 1128.555,366.397 1174.547,399.606 1174.549,399.605 1177.898,394.514 		"/>
	</g>
</g>
<g>
	<path fill="#321622" d="M1233.619,366.005h-50.437c-3.437,0-6.223-2.288-6.223-5.112v-5.771c0-2.822,2.786-5.108,6.223-5.108
		h50.437c3.435,0,6.221,2.286,6.221,5.108v5.771C1239.84,363.718,1237.054,366.005,1233.619,366.005z"/>
	<g>
		<path fill="#F1A900" d="M1208.354,355.678c3.52,0.001,6.373,2.847,6.39,6.361l3.229,0c-0.016-5.296-4.315-9.589-9.616-9.59
			c-5.304,0-9.604,4.286-9.624,9.584l3.229,0.001C1201.979,358.52,1204.834,355.675,1208.354,355.678z"/>
		<path fill="#F1A900" d="M1231.865,438.43c2.625,0,4.753-2.129,4.753-4.754v-67.559c0-2.626-2.128-4.755-4.753-4.755h-47.027
			c-2.625,0-4.753,2.129-4.753,4.755v67.559c0,2.625,2.128,4.754,4.753,4.754H1231.865z"/>
		<path fill="#DB4B43" d="M1191.271,365.95h-2.546c-1.246,0-2.256-1.01-2.256-2.255v-13.302c0-1.246,1.01-2.254,2.256-2.254h2.546
			c1.247,0,2.256,1.009,2.256,2.254v13.302C1193.526,364.94,1192.518,365.95,1191.271,365.95z"/>
		<path fill="#F1A900" d="M1191.271,365.95h-2.546c-1.246,0-2.256-1.01-2.256-2.255v-13.302c0-1.246,1.01-2.254,2.256-2.254h2.546
			c1.247,0,2.256,1.009,2.256,2.254v13.302C1193.526,364.94,1192.518,365.95,1191.271,365.95z"/>
		<path fill="#F1A900" d="M1228.914,365.781h-2.549c-1.245,0-2.255-1.01-2.255-2.256v-13.302c0-1.244,1.01-2.254,2.255-2.254h2.549
			c1.244,0,2.254,1.011,2.254,2.254v13.302C1231.168,364.771,1230.158,365.781,1228.914,365.781z"/>
		<defs>
			<filter id="Adobe_OpacityMaskFilter" filterUnits="userSpaceOnUse" x="1180.007" y="361.58" width="56.571" height="36.455">
				<feFlood  style="flood-color:white;flood-opacity:1" result="back"/>
				<feBlend  in="SourceGraphic" in2="back" mode="normal"/>
			</filter>
		</defs>
		<mask maskUnits="userSpaceOnUse" x="1180.007" y="361.58" width="56.571" height="36.455" id="SVGID_1_">
		</mask>
		<path mask="url(#SVGID_1_)" fill="#BE7D00" d="M1236.57,367.672c0-3.366-2.129-6.093-4.754-6.093h-47.025
			c-2.626,0-4.756,2.727-4.756,6.093c0,0-2.016,30.362,27.896,30.362C1237.841,398.034,1236.57,367.672,1236.57,367.672z"/>
		<path fill="#F1A900" d="M1236.787,366.118c0-2.626-2.127-4.755-4.756-4.755h-47.025c-2.625,0-4.756,2.129-4.756,4.755
			c0,0-2.014,23.694,27.896,23.694S1236.787,366.118,1236.787,366.118z"/>
		<g>
			<g>
				<path fill="#321622" d="M1193.342,368.097L1193.342,368.097c-1.555,0-2.815,1.26-2.815,2.815v36.994l2.918,2.107l2.712-2.107
					v-36.994C1196.156,369.357,1194.894,368.097,1193.342,368.097z"/>
			</g>
			<g>
				<path fill="#E1DEC7" d="M1197.333,399.68v-6.358c0-0.623-0.503-1.126-1.126-1.126h-5.879c-0.622,0-1.125,0.503-1.125,1.126
					v6.358c0,0.62,0.684,1.125,1.307,1.125l-0.006-7.355h5.677l-0.015,7.355C1196.788,400.804,1197.333,400.3,1197.333,399.68z"/>
			</g>
			<g>
				<path fill="#E1DEC7" d="M1193.3,396.186c0.468,0,0.849-0.381,0.849-0.85v-2.274c0-0.469-0.381-0.85-0.849-0.85h-0.018
					c-0.467,0-0.849,0.381-0.849,0.85v2.274c0,0.469,0.382,0.85,0.849,0.85H1193.3z"/>
			</g>
		</g>
		<g>
			<g>
				<path fill="#321622" d="M1223.585,368.097L1223.585,368.097c-1.556,0-2.816,1.26-2.816,2.815v36.994l2.92,2.107l2.71-2.107
					v-36.994C1226.398,369.357,1225.139,368.097,1223.585,368.097z"/>
			</g>
			<g>
				<path fill="#E1DEC7" d="M1227.577,399.68v-6.358c0-0.623-0.505-1.126-1.124-1.126h-5.882c-0.621,0-1.126,0.503-1.126,1.126
					v6.358c0,0.62,0.687,1.125,1.308,1.125l-0.006-7.355h5.676l-0.013,7.355C1227.03,400.804,1227.577,400.3,1227.577,399.68z"/>
			</g>
			<g>
				<path fill="#E1DEC7" d="M1223.544,396.186c0.467,0,0.848-0.381,0.848-0.85v-2.274c0-0.469-0.381-0.85-0.848-0.85h-0.019
					c-0.469,0-0.848,0.381-0.848,0.85v2.274c0,0.469,0.379,0.85,0.848,0.85H1223.544z"/>
			</g>
		</g>
		<g>
			<path fill="#BE7D00" d="M1220.439,435.362c1.425,0,2.577-1.153,2.577-2.574v-18.007c0-1.424-1.152-2.576-2.577-2.576h-26.465
				c-1.424,0-2.575,1.152-2.575,2.576v18.007c0,1.421,1.151,2.574,2.575,2.574H1220.439z"/>
		</g>
		<g>
			<path fill="#321622" d="M1220.439,423.702c1.425,0,2.577-1.154,2.577-2.575v-6.346c0-1.424-1.152-2.576-2.577-2.576h-26.465
				c-1.424,0-2.575,1.152-2.575,2.576v6.346c0,1.421,1.151,2.575,2.575,2.575H1220.439z"/>
		</g>
		<g>
			<circle fill="#E1DEC7" cx="1208.002" cy="419.98" r="1.662"/>
		</g>
	</g>
</g>
<g>
	<circle fill="#FFFFFF" cx="1256.218" cy="380.471" r="7.983"/>
	<circle fill="#E0AD00" cx="1256.217" cy="380.471" r="4.935"/>
</g>
<g>
	<circle fill="#FFFFFF" cx="1087.164" cy="433.245" r="7.983"/>
	<circle fill="#E0AD00" cx="1087.164" cy="433.245" r="4.935"/>
</g>
<g>
	<circle fill="#FFFFFF" cx="1276.194" cy="454.102" r="7.983"/>
	<circle fill="#E0AD00" cx="1276.195" cy="454.102" r="4.936"/>
</g>
<g>
	<path fill="#98C20E" d="M1307.041,417.068c-2.352-5.41-11.454-13.118-22.328-13.118c-10.873,0-19.979,7.708-22.33,13.118H1307.041z
		"/>
	<path opacity="0.53" fill="#84A800" d="M1284.946,417.068h22.095c-2.332-5.371-11.324-13.002-22.095-13.113V417.068z"/>
</g>
<g>
	<path fill="#98C20E" d="M1168.942,435.193c-2.782-6.399-13.55-15.516-26.408-15.516s-23.627,9.117-26.407,15.516H1168.942z"/>
	<path opacity="0.53" fill="#84A800" d="M1142.811,435.193h26.132c-2.761-6.355-13.395-15.38-26.132-15.511V435.193z"/>
</g>
<g>
	<path fill="#98C20E" d="M1262.521,448.542c-3.404-7.83-16.582-18.987-32.318-18.987c-15.738,0-28.917,11.157-32.317,18.987
		H1262.521z"/>
	<path opacity="0.53" fill="#84A800" d="M1230.542,448.542h31.979c-3.379-7.773-16.394-18.819-31.979-18.98V448.542z"/>
</g>
<g>
	<g>
		<path fill="none" stroke="#23A098" stroke-width="3" stroke-linecap="round" stroke-linejoin="round" d="M813.134,363.619
			c0,0-2.142,0.042-5.995,0.104"/>
		
			<path fill="none" stroke="#23A098" stroke-width="3" stroke-linecap="round" stroke-linejoin="round" stroke-dasharray="12.0599,12.0599" d="
			M795.083,363.892c-40.193,0.493-136.604,1.007-175.849-4.628c-51.996-7.468-24.645-25.851,15.482-28.952
			c40.13-3.099,247.875,10.795,247.869-7.483c-0.004-18.466-276.229-1.826-255.644-16.829c20.585-15,237.866,1.983,208.525-15.209
			c0,0-16.834-4.52-43.661-4.578"/>
		<path fill="none" stroke="#23A098" stroke-width="3" stroke-linecap="round" stroke-linejoin="round" d="M785.769,286.274
			c-1.955,0.044-3.956,0.114-5.999,0.21"/>
	</g>
</g>
<g>
	<path fill="#4C8E67" d="M788.577,299.7c9.185,0,74.597,115.825,74.597,115.825H713.98C713.98,415.525,779.392,299.7,788.577,299.7z
		"/>
	<path fill="#FFFFFF" d="M802.254,323.449c0,0,1.938,9.373-3.878,11.245c-5.817,1.877-8.782-11.038-8.782-11.038
		s-4.285,12.395-10.41,10.833c-6.119-1.562-2.037-12.292-2.037-12.292s-4.325,10.366-12.248,7.93
		c11.164-17.355,20.594-30.428,23.679-30.428c3.261,0,13.599,14.583,25.582,33.4C809.866,334.248,802.254,323.449,802.254,323.449z"
		/>
</g>
<g>
	<path fill="#61BB98" d="M702.592,308.919c9.187,0,74.598,115.827,74.598,115.827H627.994
		C627.994,424.746,693.404,308.919,702.592,308.919z"/>
	<path fill="#FFFFFF" d="M716.265,332.669c0,0,1.942,9.375-3.876,11.249c-5.814,1.874-8.777-11.039-8.777-11.039
		s-4.286,12.392-10.408,10.83c-6.125-1.563-2.043-12.29-2.043-12.29s-4.323,10.362-12.244,7.927
		c11.16-17.351,20.592-30.427,23.676-30.427c3.261,0,13.596,14.584,25.582,33.403C723.885,343.47,716.265,332.669,716.265,332.669z"
		/>
</g>
<path fill="#85A100" d="M642.658,490.595c64.887,0,125.732,2.332,178.217,6.406c-36.439,2.378-105.42,3.981-184.531,3.981
	c-74.198,0-139.484-1.411-177.369-3.549C512.685,493.091,575.509,490.595,642.658,490.595z"/>
<g>
	<g>
		<path fill="#F1A900" d="M484.787,494.208c0,0,48.801-58.67,61.811-92.39c13.018,33.72,61.815,92.39,61.815,92.39H484.787z"/>
		<path fill="#717071" d="M538.574,494.208c0,0,6.337-38.257,8.023-60.244c1.693,21.987,8.027,60.244,8.027,60.244H538.574z"/>
		<path fill="#F7CC5E" d="M546.598,401.817c0,0,0.555,50.343-23.25,89.122l15.227,3.269
			C538.574,494.208,550.477,428.691,546.598,401.817z"/>
		<path fill="#F7CC5E" d="M546.405,401.817c0,0-0.554,50.343,23.251,89.122l-15.223,3.269
			C554.434,494.208,542.531,428.691,546.405,401.817z"/>
		<path fill="#F7CC5E" d="M537.051,417.836c0,0,7.54-10.657,9.547-16.779c2.012,6.123,9.55,16.779,9.55,16.779H537.051z"/>
	</g>
</g>
<path fill="#F2F7F3" d="M1103.395,421.604c0,76.541-62.051,138.586-138.591,138.586c-76.542,0-138.59-62.046-138.59-138.586
	c0-76.542,62.048-138.591,138.59-138.591C1041.344,283.012,1103.395,345.061,1103.395,421.604z"/>
<g>
	<g>
		<g>
			<path fill="#197E85" d="M947.295,363.052c0,0.632,0.523,1.16,1.165,1.16c0.646,0,1.168-0.527,1.168-1.16
				c0-0.642-0.521-1.161-1.168-1.161C947.818,361.891,947.295,362.41,947.295,363.052z"/>
			<path fill="#197E85" d="M961.859,345.072c0.635,0,1.158-0.521,1.158-1.16c0-0.638-0.523-1.166-1.158-1.166
				c-0.645,0-1.172,0.527-1.172,1.166C960.688,344.551,961.215,345.072,961.859,345.072z"/>
			<path fill="#197E85" d="M952.464,363.801c0.295,0,0.565-0.133,0.739-0.368c0.331-0.414,0.254-1.017-0.146-1.331l-4.19-3.28
				c-0.182-0.125-0.385-0.194-0.588-0.194c-0.293,0-0.57,0.13-0.757,0.366c-0.153,0.206-0.228,0.448-0.204,0.696
				c0.035,0.263,0.173,0.485,0.376,0.644l4.182,3.271C952.043,363.731,952.254,363.801,952.464,363.801z"/>
			<path fill="#197E85" d="M962.068,335.448c0.642,0,1.169-0.528,1.169-1.159c0-0.646-0.527-1.168-1.169-1.168
				c-0.631,0-1.158,0.522-1.158,1.168C960.91,334.92,961.438,335.448,962.068,335.448z"/>
			<path fill="#197E85" d="M944.502,368.665c0-0.645-0.525-1.169-1.166-1.169c-0.656,0-1.156,0.525-1.156,1.169
				c0,0.633,0.5,1.154,1.156,1.154C943.977,369.818,944.502,369.298,944.502,368.665z"/>
			<path fill="#197E85" d="M951.844,356.416c0-0.644-0.533-1.169-1.167-1.169c-0.644,0-1.173,0.525-1.173,1.169
				c0,0.644,0.529,1.159,1.173,1.159C951.311,357.574,951.844,357.059,951.844,356.416z"/>
			<path fill="#197E85" d="M960.035,336.862c-0.631,0-1.16,0.531-1.16,1.171c0,0.635,0.529,1.164,1.16,1.164
				c0.636,0,1.164-0.528,1.164-1.164C961.199,337.393,960.671,336.862,960.035,336.862z"/>
			<path fill="#197E85" d="M915.521,399.133l0.072-0.026c1.73-0.602,3.186-1.467,4.322-2.551c1.59-1.537,2.635-3.612,3.082-6.183
				l0.017-0.071c0-0.005-0.009-0.029-0.017-0.03c-0.008-0.013-0.026-0.008-0.034,0.001l-0.058,0.047
				c-1.246,1.066-2.621,2.015-4.097,2.804c0,0.002,0,0.008,0,0.01l-3.315,5.945c0,0.018,0,0.038,0,0.049
				c0.008,0,0.013,0.008,0.013,0.008S915.521,399.138,915.521,399.133z"/>
			<path fill="#197E85" d="M934.065,380.445c-0.017,0.008-0.017,0.017-0.017,0.022s0,0.016,0,0.032l0.017,0.022
				c0.852,1.395,1.911,2.566,3.168,3.486v0.009c0.01,0,0.01,0,0.03,0l0,0l0.022-0.005c5.459-2.456,14.147-5.515,24.632-6.195
				l0.019-0.001c0.017,0,0.038-0.014,0.038-0.03v-0.057c0-0.119,0-0.25,0-0.389c0-2.069,1.614-3.756,3.596-3.756
				c0.053,0,0.095,0,0.165,0.007c0.041-0.007,0.097-0.007,0.147-0.007c1.987,0,3.597,1.688,3.597,3.756c0,0.093,0,0.174,0,0.27
				v0.133c0,0.018,0.02,0.037,0.036,0.037l0.02,0.003c7.88,0.427,15.468,2.381,22.562,5.781l0.019,0.005
				c0.007,0.005,0.018,0.005,0.023-0.005h0.017c1.426-0.829,2.699-1.875,3.801-3.128l0.017-0.029
				c0.011-0.013,0.011-0.017,0.011-0.025c0-0.016-0.011-0.026-0.015-0.029l-0.035-0.012c-6.54-3.375-13.479-5.605-20.645-6.599
				c-0.137-4.077-1.399-7.876-3.53-10.705c-2.142-2.853-4.963-4.43-7.925-4.43c-3.083,0-5.974,1.661-8.138,4.672
				c-2.148,2.989-3.349,6.972-3.364,11.207c-7.917,1.543-14.28,4.088-18.233,5.955L934.065,380.445z"/>
			<path fill="#197E85" d="M940.096,374.824c0-0.643-0.521-1.167-1.168-1.167c-0.635,0-1.163,0.524-1.163,1.167
				c0,0.641,0.528,1.163,1.163,1.163C939.574,375.987,940.096,375.464,940.096,374.824z"/>
			<path fill="#197E85" d="M941.896,372.315c0.036,0.518,0.448,0.925,0.965,0.925h0.03c0.004,0,0.004,0,0.004,0l6.297-0.191
				c0.256-0.004,0.486-0.114,0.659-0.298c0.167-0.183,0.275-0.428,0.261-0.683c-0.021-0.512-0.441-0.924-0.978-0.924l-6.296,0.187
				C942.317,371.346,941.89,371.79,941.896,372.315z"/>
			<path fill="#197E85" d="M907.88,412.886l0.063-0.03c0.478-0.196,0.987-0.297,1.485-0.297c0.073,0,0.144,0.003,0.196,0.003
				c0.065,0.003,0.129,0.003,0.236,0.003c0.588,0,2.73-0.056,5.111-0.783l0.008-0.006c0.007,0,0.007-0.013,0.016-0.013l2.741-4.937
				c0.015-0.005,0.015-0.023,0-0.03c0-0.009-0.02-0.02-0.03-0.009l-0.07,0.016c-3.004,0.978-5.741,1.188-7.092,1.235h-0.016
				c-0.029,0-0.029,0.01-0.029,0.023l-2.67,4.788c0,0.006,0,0.019,0.012,0.033c0,0.003,0.018,0.003,0.018,0.003
				C907.871,412.886,907.871,412.886,907.88,412.886z"/>
			<path fill="#197E85" d="M981.856,356.853c0-0.637-0.509-1.155-1.149-1.155c-0.646,0-1.175,0.518-1.175,1.155
				c0,0.646,0.528,1.167,1.175,1.167C981.348,358.021,981.856,357.5,981.856,356.853z"/>
			<path fill="#197E85" d="M931.604,370.239c0,3.324,0.537,6.226,1.593,8.613l0.022,0.056c0.01,0.005,0.029,0.018,0.029,0.012
				c0.02,0,0.027-0.007,0.037-0.012l7.411-13.325l9.337,2.795c0.1,0.028,0.188,0.04,0.281,0.04c0.427,0,0.779-0.268,0.906-0.68
				c0.072-0.246,0.055-0.506-0.061-0.728c-0.123-0.225-0.333-0.384-0.57-0.463l-8.946-2.67l8.468-15.204l4.74,11.28
				c0.154,0.353,0.492,0.581,0.869,0.581c0.123,0,0.268-0.022,0.369-0.075c0.501-0.199,0.722-0.764,0.521-1.244l-4.826-11.477
				c-0.139-0.34-0.459-0.56-0.843-0.583l4.047-7.244l4.153,17.058c0.103,0.436,0.494,0.736,0.928,0.736
				c0.087,0,0.158-0.008,0.23-0.024c0.246-0.061,0.451-0.214,0.593-0.436c0.125-0.222,0.17-0.48,0.104-0.723l-4.614-18.908
				c-0.004-0.041-0.012-0.091-0.034-0.144l7.342-13.209l0.087,32.064c0,0.521,0.427,0.948,0.955,0.948
				c0.529-0.001,0.953-0.429,0.953-0.954l-0.087-32.623l8.289,14.875c0,0.005,0,0.005,0,0.009l-5.114,19.107
				c-0.143,0.51,0.162,1.036,0.686,1.177c0.07,0.016,0.159,0.024,0.237,0.024c0.437,0,0.807-0.289,0.914-0.703l4.6-17.208
				l4.006,7.182c-0.105-0.035-0.204-0.052-0.306-0.052c-0.364,0-0.697,0.205-0.855,0.531l-5.648,11.299
				c-0.119,0.229-0.135,0.49-0.069,0.728c0.086,0.245,0.254,0.436,0.479,0.554c0.146,0.068,0.296,0.098,0.435,0.098
				c0.354,0,0.688-0.193,0.853-0.525l5.661-11.305c0.036-0.067,0.06-0.142,0.065-0.21l7.623,13.675l-10.634,3.227
				c-0.517,0.154-0.789,0.69-0.642,1.192c0.125,0.398,0.491,0.677,0.907,0.677c0.096,0,0.188-0.014,0.278-0.04l11.042-3.351
				l8.232,14.8l0.011,0.029c0.019,0.006,0.022,0.021,0.029,0.021l0,0c0.01,0,0.013-0.003,0.023-0.018l0.028-0.028
				c1.334-1.799,2.317-3.949,2.911-6.37v-0.007c0-0.004,0-0.013,0-0.02l-31.556-56.697l5.6-10.054
				c0.372-0.677,0.468-1.452,0.254-2.187c-0.218-0.734-0.7-1.343-1.366-1.722c-0.422-0.234-0.907-0.358-1.387-0.358
				c-1.045,0-2.009,0.564-2.501,1.478l-37.08,66.592c0,0.004,0,0.02,0,0.023c0,0.02,0,0.035,0,0.048
				S931.604,370.218,931.604,370.239z"/>
			<path fill="#197E85" d="M953.975,347.681c0,0.64,0.524,1.165,1.153,1.165c0.65,0,1.167-0.525,1.167-1.165
				c0-0.639-0.517-1.16-1.167-1.16C954.499,346.521,953.975,347.042,953.975,347.681z"/>
			<path fill="#197E85" d="M975.957,349.313c0-0.637-0.519-1.154-1.158-1.154c-0.645,0-1.155,0.518-1.155,1.154
				c0,0.644,0.511,1.165,1.155,1.165C975.438,350.478,975.957,349.957,975.957,349.313z"/>
			<path fill="#197E85" d="M960.271,314.122c0.01,0.006,0.01,0.008,0.029,0.008l0,0c0.01,0,0.023-0.002,0.023-0.008l0.021-0.046
				c1.15-2.132,2.206-3.889,3.359-5.52l0.015-0.015c0.004-0.009,0.004-0.029,0-0.035l-2.797-4.981
				c-0.491-0.914-1.453-1.478-2.504-1.478c-0.478,0-0.96,0.124-1.381,0.358c-1.382,0.778-1.881,2.52-1.113,3.908L960.271,314.122z"
				/>
			<path fill="#197E85" d="M1039.284,424.81h-8.631c-0.032,0-0.039,0.003-0.046,0.01c-0.013,0.009-0.013,0.031,0,0.036l3.148,5.656
				l0.009,0.013c0.005,0.007,0.011,0.016,0.021,0.016h5.499c1.578,0,2.868-1.29,2.868-2.866
				C1042.152,426.087,1040.862,424.81,1039.284,424.81z"/>
			<path fill="#197E85" d="M907.662,424.948l2.418-4.345l0.022-0.036c0.007-0.013,0.007-0.024,0-0.037
				c-0.015-0.006-0.022-0.01-0.037-0.01l0,0h-0.038c-0.391,0.007-0.636-0.013-0.734-0.013l-0.016-0.003
				c-1.846-0.086-3.438-1.478-3.756-3.289l-0.007-0.079c-0.009-0.003-0.009-0.021-0.03-0.023c-0.022-0.006-0.022,0.007-0.037,0.02
				l-10.276,18.473c-0.767,1.384-0.282,3.129,1.099,3.907c0.442,0.233,0.92,0.358,1.397,0.358c1.044,0,1.997-0.566,2.511-1.474
				l4.286-7.708h120.681l4.288,7.708c0.511,0.907,1.466,1.474,2.508,1.474c0.479,0,0.971-0.125,1.396-0.358
				c1.379-0.778,1.872-2.523,1.099-3.907l-8.971-16.146l-0.017-0.02c-0.007-0.007-0.036-0.02-0.036-0.007l-0.025,0.007
				c-0.489,0.23-1.007,0.356-1.538,0.386c-0.08,0.003-0.291,0.01-0.631,0.01c-0.736,0-2.286-0.046-4.207-0.356l-0.059-0.014
				c0,0-0.017,0.004-0.027,0.018c-0.003,0.013-0.003,0.022,0,0.029l3.023,5.437H907.662z"/>
			<path fill="#197E85" d="M895.846,430.525l3.138-5.636l0.017-0.033c0.014-0.005,0.014-0.027,0-0.036
				c0-0.006-0.017-0.01-0.028-0.01h-8.649c-1.578,0-2.867,1.277-2.867,2.864c0,1.577,1.289,2.866,2.867,2.866h5.5
				C895.828,430.541,895.838,430.532,895.846,430.525z"/>
			<path fill="#197E85" d="M975.153,362.689c-0.217,0.159-0.354,0.382-0.4,0.632c-0.028,0.251,0.028,0.501,0.184,0.708
				c0.175,0.243,0.462,0.39,0.767,0.39c0.21,0,0.398-0.064,0.562-0.182l4.293-3.136c0.205-0.148,0.34-0.369,0.376-0.624
				c0.036-0.254-0.013-0.503-0.171-0.706c-0.179-0.246-0.473-0.391-0.76-0.391c-0.204,0-0.408,0.062-0.567,0.182L975.153,362.689z"
				/>
			<path fill="#197E85" d="M968.704,337.375c-0.63,0-1.146,0.526-1.146,1.168c0,0.638,0.516,1.163,1.146,1.163
				c0.66,0,1.175-0.525,1.175-1.163C969.879,337.901,969.364,337.375,968.704,337.375z"/>
			<path fill="#197E85" d="M1018.047,406.183h-0.013c-3.05-0.613-5.808-1.672-8.17-3.161l-0.079-0.06
				c-0.007-0.007-0.043-0.007-0.046,0.001c-0.014,0.01-0.014,0.032,0,0.043l2.544,4.57c0,0.006,0.022,0.009,0.022,0.009
				c0.013,0.023,0.02,0.044,0.04,0.061l0.021,0.033c0.067,0.066,0.131,0.125,0.197,0.195c2.501,2.395,5.913,3.276,8.344,3.591
				l0.053,0.008l0,0c0.018,0,0.021-0.004,0.021-0.014c0.013-0.009,0.013-0.026,0.009-0.032l-2.899-5.225l-0.017-0.008
				C1018.073,406.187,1018.066,406.183,1018.047,406.183z"/>
			<path fill="#197E85" d="M978.332,369.666c-0.515,0-0.934,0.408-0.957,0.927c-0.013,0.516,0.394,0.963,0.935,0.983l9.894,0.327
				c0.021,0,0.027,0,0.037,0c0.527,0,0.939-0.405,0.956-0.919c0.023-0.527-0.398-0.972-0.927-0.987l-9.902-0.332H978.332z"/>
			<path fill="#197E85" d="M967.728,344.67c0,0.636,0.527,1.168,1.154,1.168c0.647,0,1.168-0.532,1.168-1.168
				c0-0.637-0.521-1.16-1.168-1.16C968.255,343.51,967.728,344.033,967.728,344.67z"/>
			<path fill="#197E85" d="M988.391,373.895c0,0.647,0.512,1.17,1.16,1.17c0.636,0,1.163-0.523,1.163-1.17
				c0-0.64-0.527-1.161-1.163-1.161C988.902,372.734,988.391,373.254,988.391,373.895z"/>
			<path fill="#197E85" d="M984.979,368.159c0-0.638-0.527-1.151-1.161-1.151c-0.646,0-1.157,0.514-1.157,1.151
				c0,0.645,0.511,1.164,1.157,1.164C984.452,369.323,984.979,368.803,984.979,368.159z"/>
		</g>
		<path fill="#24A4A3" d="M924.939,424.948v-11.943l-1.371,1.171c-5.092,4.335-11.795,4.672-13.727,4.672
			c-0.23,0-0.391-0.007-0.484-0.013c-0.625-0.027-1.203-0.294-1.624-0.749c-0.411-0.461-0.622-1.049-0.606-1.659
			c0.067-1.212,1.098-2.195,2.302-2.195c0.044,0,0.073,0,0.144,0c0.007,0.004,0.096,0.007,0.289,0.007
			c1.158,0,7.205-0.194,11.205-4.015c1.948-1.865,3.184-4.411,3.649-7.568l0.304-2.145l-1.665,1.382
			c-5.066,4.168-11.61,4.492-13.493,4.492c-0.25,0-0.41-0.003-0.541-0.005c-1.271-0.072-2.245-1.143-2.193-2.407
			c0.067-1.198,1.107-2.201,2.294-2.201c0.034,0,0.081,0,0.116,0h0.022c0.052,0.007,0.137,0.007,0.272,0.007
			c1.183,0,7.238-0.198,11.234-4.021c2.396-2.292,3.684-5.543,3.844-9.682l0.096-2.247l-1.536,1.64
			c-4.256,4.562-9.222,5.751-9.44,5.794c-0.141,0.037-0.322,0.06-0.492,0.06c-1.084,0-1.999-0.745-2.242-1.812
			c-0.275-1.233,0.508-2.459,1.744-2.75c0.479-0.11,11.9-2.904,11.9-18.522c0-1.275,1.041-2.309,2.309-2.309
			c0.015,0,0.051,0.005,0.094,0.009l0.092,0.011l0.104-0.011c0.045-0.003,0.074-0.009,0.1-0.009c1.268,0,2.303,1.033,2.303,2.309
			c0,15.448,10.771,17.236,11.234,17.303c1.254,0.176,2.134,1.34,1.953,2.592c-0.145,1.14-1.129,1.997-2.28,1.997
			c-0.108,0-0.208-0.007-0.318-0.021c-0.202-0.026-4.985-0.76-9.153-4.93l-1.478-1.479l0.051,2.088
			c0.124,4.273,1.419,7.625,3.864,9.968c3.994,3.822,10.068,4.021,11.24,4.021c0.16,0,0.246,0,0.26,0l0.094-0.007
			c1.254,0,2.288,0.956,2.346,2.183c0.029,0.619-0.182,1.209-0.6,1.665c-0.406,0.452-0.965,0.727-1.535,0.753l-0.101,0.007
			c-0.022,0-0.182,0.005-0.5,0.005c-1.89,0-8.434-0.324-13.484-4.492l-1.671-1.378l0.31,2.144c0.463,3.155,1.694,5.7,3.642,7.565
			c4.002,3.821,10.053,4.015,11.226,4.015c0.139,0,0.23-0.002,0.274-0.007h0.08c1.268,0,2.302,0.963,2.359,2.19
			c0.029,0.611-0.182,1.202-0.6,1.664c-0.406,0.452-0.971,0.719-1.578,0.749h-0.058c-0.124,0.013-0.282,0.013-0.5,0.013
			c-1.919,0-8.612-0.334-13.702-4.672l-1.375-1.171v11.943H924.939z M967.804,424.948v-8.708l1.386,1.235
			c4.232,3.755,9.667,4.048,11.224,4.048c0.112,0,0.321,0,0.446-0.009c1.052-0.063,1.877-1.042,1.835-2.185
			c-0.05-1.083-0.918-1.992-1.925-1.992l-0.071,0.009c-0.094,0-0.17,0-0.285,0c-0.96,0-6.027-0.174-9.373-3.659
			c-1.574-1.643-2.583-3.856-2.999-6.592l-0.346-2.218l1.711,1.455c4.188,3.591,9.504,3.865,11.007,3.865
			c0.229,0,0.367-0.007,0.439-0.017h0.022c1.049-0.059,1.861-1.033,1.819-2.182c-0.05-1.094-0.908-1.99-1.931-1.99l-0.065,0.006
			c-0.036,0-0.116,0.004-0.262,0.004c-0.97,0-6.051-0.178-9.396-3.657c-1.938-2.02-3.016-4.876-3.207-8.486l-0.112-2.357l1.57,1.757
			c3.488,3.882,7.49,4.954,7.658,4.999c0.123,0.025,0.268,0.047,0.399,0.047c0.9,0,1.68-0.676,1.867-1.636
			c0.228-1.115-0.422-2.237-1.465-2.496c-0.393-0.102-9.947-2.624-9.947-16.849c0-0.558-0.198-1.085-0.562-1.473
			c-0.349-0.394-0.842-0.612-1.359-0.612l0,0l-0.106,0.012l-0.153-0.009l-0.018-0.003c-0.014,0-0.021-0.006-0.035-0.006
			c-1.064,0-1.917,0.943-1.917,2.091c0,14.082-9.013,15.677-9.387,15.736c-1.063,0.166-1.783,1.218-1.645,2.356
			c0.137,1.128,1.1,1.945,2.157,1.789c0.168-0.026,4.054-0.754,7.409-4.24l1.531-1.569l-0.089,2.18
			c-0.138,3.745-1.229,6.689-3.213,8.77c-3.352,3.479-8.426,3.657-9.425,3.657c-0.151,0-0.218-0.004-0.245-0.004l-0.059-0.006
			c-1.027,0.006-1.882,0.873-1.93,1.983c-0.053,1.152,0.772,2.129,1.836,2.188h0.028c0.071,0.01,0.212,0.014,0.407,0.014
			c1.518,0,6.823-0.281,11.015-3.862l1.703-1.455l-0.337,2.218c-0.408,2.736-1.424,4.949-2.994,6.592
			c-3.358,3.485-8.411,3.659-9.387,3.659c-0.154,0-0.219,0-0.24,0h-0.071c-1.042,0-1.912,0.865-1.96,1.98
			c-0.053,1.142,0.764,2.125,1.812,2.188c0.105,0,0.241,0.009,0.46,0.009c1.562,0,7.006-0.293,11.217-4.048l1.405-1.235v8.708
			H967.804z M1007.297,424.948v-12.947l1.416,1.211c5.365,4.593,12.448,4.946,14.504,4.946c0.207,0,0.408-0.004,0.545-0.007
			c0.656-0.032,1.24-0.32,1.679-0.798c0.433-0.485,0.66-1.103,0.621-1.752c-0.063-1.293-1.156-2.31-2.488-2.31h-0.069
			c-0.043,0.006-0.129,0.013-0.316,0.013c-1.222,0-7.6-0.208-11.803-4.237c-2.074-1.987-3.368-4.695-3.854-8.056l-0.31-2.163
			l1.702,1.414c5.342,4.428,12.278,4.771,14.264,4.771c0.219,0,0.392-0.003,0.567-0.011c0.663-0.032,1.247-0.319,1.686-0.795
			c0.433-0.485,0.66-1.104,0.621-1.746c-0.063-1.3-1.141-2.315-2.469-2.315l-0.093,0.008c0,0,0,0-0.006,0
			c-0.013,0-0.119,0.003-0.277,0.003c-1.237,0-7.629-0.207-11.832-4.232c-2.596-2.487-3.965-6.043-4.074-10.578l-0.049-2.125
			l1.507,1.518c4.444,4.458,9.652,5.23,9.693,5.245c0.11,0.01,0.198,0.014,0.321,0.014c1.217,0,2.246-0.902,2.425-2.104
			c0.171-1.327-0.759-2.544-2.072-2.725c-0.476-0.083-11.839-2.025-11.839-18.235c0-1.342-1.085-2.428-2.424-2.428
			c-0.037,0-0.063,0-0.109,0.005l-0.097,0.013l-0.091-0.013c-0.041,0-0.074-0.005-0.11-0.005c-1.355,0-2.438,1.086-2.438,2.428
			c0,16.408-12.03,19.396-12.522,19.515c-1.303,0.305-2.14,1.595-1.854,2.9c0.248,1.115,1.23,1.902,2.38,1.902
			c0.177,0,0.349-0.02,0.517-0.058c0.222-0.043,5.46-1.269,9.988-6.148l1.555-1.685l-0.08,2.27
			c-0.154,4.396-1.518,7.858-4.071,10.286c-4.193,4.032-10.574,4.238-11.806,4.238c-0.121,0-0.228-0.003-0.321-0.003
			c-0.041-0.008-0.071-0.011-0.113-0.011c-1.261,0-2.37,1.069-2.426,2.327c-0.061,1.331,0.977,2.474,2.333,2.533
			c0.056,0.006,0.236,0.011,0.537,0.011c1.987,0,8.935-0.343,14.267-4.771l1.696-1.414l-0.297,2.163
			c-0.477,3.36-1.775,6.068-3.87,8.056c-4.193,4.029-10.549,4.237-11.796,4.237c-0.131,0-0.243-0.007-0.301-0.007l-0.064-0.009
			h-0.087c-1.267,0-2.362,1.039-2.418,2.329c-0.061,1.332,0.964,2.468,2.304,2.533c0.078,0.003,0.26,0.007,0.566,0.007
			c2.046,0,9.113-0.353,14.479-4.946l1.405-1.211v12.947H1007.297z"/>
	</g>
	<g>
		<g>
			<path fill="#24A4A3" d="M911.643,462.383c-1.15,0-2.088,0.937-2.088,2.088v17.86c0,0.495-0.398,0.9-0.9,0.9h-10.801
				c-0.48,0-0.85-0.396-0.85-0.9v-27.056c0-1.107-0.972-2.081-2.082-2.081c-1.14,0-2.092,0.953-2.092,2.081v27.056
				c0,0.495-0.407,0.9-0.898,0.9h-9.907c-0.492,0-0.891-0.405-0.891-0.9v-17.622c0-1.171-0.917-2.093-2.089-2.093
				c-1.168,0-2.082,0.922-2.082,2.093v19.187c0,1.933,1.569,3.508,3.506,3.508h29.752c1.936,0,3.508-1.575,3.508-3.508v-19.425
				C913.729,463.32,912.793,462.383,911.643,462.383z"/>
			<path fill="#24A4A3" d="M938.801,473.518h-5.315c-0.321,0-0.571-0.229-0.571-0.514v-0.38c0-1.075-0.871-1.947-1.935-1.947
				c-1.081,0-1.95,0.872-1.95,1.947v0.38c0,0.3-0.22,0.514-0.525,0.514h-4.73c-1.1,0-1.998,0.915-1.998,2.037
				c0,1.118,0.878,1.996,1.998,1.996h2.082c0.163,0,0.321,0.095,0.41,0.244c0.083,0.151,0.071,0.326-0.022,0.482l-4.5,7.297
				c-0.261,0.419-0.265,0.931-0.025,1.366c0.249,0.436,0.701,0.695,1.201,0.695c1.456,0,2.78-0.765,3.546-2.058l2.232-3.752
				c0.035-0.096,0.106-0.105,0.149-0.105c0.091,0,0.183,0.069,0.183,0.182v6.968c0,1.076,0.869,1.943,1.95,1.943
				c1.063,0,1.935-0.867,1.935-1.943v-7.302c0-0.115,0.119-0.188,0.219-0.188c0.043,0,0.118,0.01,0.171,0.076l1.79,3.236
				c0.676,1.211,1.961,1.963,3.355,1.963c0.48,0,0.906-0.246,1.156-0.666c0.252-0.423,0.252-0.923,0.025-1.347l-3.5-6.41
				c-0.059-0.106-0.021-0.222,0.021-0.294c0.122-0.205,0.432-0.389,0.668-0.389h1.981c1.118,0,1.994-0.878,1.994-1.996
				C940.795,474.433,939.899,473.518,938.801,473.518z"/>
			<path fill="#24A4A3" d="M957.5,478.234c-0.079-0.146-0.079-0.311,0.006-0.449c0.078-0.148,0.242-0.233,0.427-0.233h1.281
				c1.117,0,1.993-0.878,1.993-1.996c0-1.122-0.896-2.037-1.993-2.037h-4.356c-0.32,0-0.576-0.229-0.576-0.514v-0.38
				c0-1.093-0.834-1.947-1.891-1.947c-1.075,0-1.949,0.872-1.949,1.947v0.38c0,0.284-0.246,0.514-0.563,0.514h-5.701
				c-1.069,0-1.989,0.938-1.989,2.037c0,1.102,0.9,1.996,1.989,1.996h2.46c0.244,0,0.568,0.184,0.701,0.401
				c0.074,0.116,0.08,0.229,0.037,0.331l-3.747,6.536c-0.228,0.421-0.228,0.917,0.021,1.335c0.255,0.427,0.702,0.677,1.208,0.677
				c1.42,0,2.703-0.752,3.356-1.963l1.853-3.224c0.035-0.072,0.104-0.112,0.188-0.112c0.094,0,0.188,0.063,0.188,0.185v7.153
				c0,1.076,0.874,1.943,1.949,1.943c1.057,0,1.891-0.851,1.891-1.943v-7.486c0-0.151,0.109-0.207,0.201-0.207
				c0.076,0,0.145,0.032,0.187,0.088l1.938,3.555c0.728,1.26,2.025,2.012,3.457,2.012c0.501,0,0.949-0.247,1.191-0.669
				c0.247-0.433,0.243-0.95-0.01-1.392L957.5,478.234z"/>
			<path fill="#24A4A3" d="M943.338,467.834v-7.767c0-0.202,0.176-0.312,0.333-0.312c0.093,0,0.188,0.037,0.249,0.103l4.838,4.933
				c1.243,1.237,2.985,1.954,4.768,1.954c0.487,0,0.895-0.281,1.09-0.74c0.182-0.451,0.094-0.944-0.252-1.283l-6.152-6.256
				c-0.096-0.118-0.127-0.26-0.066-0.386c0.059-0.118,0.182-0.193,0.311-0.193h4.203c1.119,0,2.039-0.915,2.039-2.04
				c0-1.122-0.92-2.038-2.039-2.038h-8.608c-0.396,0-0.712-0.314-0.712-0.709v-0.76c0-1.111-0.877-1.988-1.988-1.988
				c-1.123,0-2.035,0.895-2.035,1.988v0.76c0,0.411-0.283,0.709-0.666,0.709h-8.572c-1.129,0-2.045,0.916-2.045,2.038
				c0,1.125,0.916,2.04,2.045,2.04h4.215c0.128,0,0.235,0.064,0.287,0.181c0.047,0.118,0.011,0.248-0.084,0.353l-6.349,6.257
				c-0.365,0.358-0.477,0.869-0.286,1.328c0.191,0.459,0.615,0.74,1.125,0.74c1.82,0,3.525-0.714,4.82-2.003l4.977-4.83
				c0.063-0.066,0.148-0.11,0.238-0.11c0.137,0,0.295,0.11,0.295,0.308v7.725c0,1.125,0.912,2.038,2.035,2.038
				C942.448,469.873,943.338,468.959,943.338,467.834z"/>
			<path fill="#24A4A3" d="M1005.693,454.52h-21.846c-0.204,0-0.393-0.101-0.523-0.279c-0.122-0.186-0.16-0.42-0.093-0.598
				l0.616-1.378c0.215-0.516,0.162-1.062-0.131-1.492c-0.28-0.417-0.729-0.659-1.244-0.659c-1.354,0-2.597,0.793-3.267,2.068
				l-0.606,1.422c-0.252,0.63-0.862,0.916-1.334,0.916h-7.35c-1.206,0-2.08,0.874-2.08,2.086c0,1.181,0.874,2.036,2.08,2.036h5.36
				c0.251,0,0.491,0.135,0.63,0.359c0.133,0.201,0.165,0.435,0.081,0.617l-6.828,15.161c-0.205,0.521-0.159,1.069,0.139,1.511
				c0.271,0.401,0.717,0.64,1.195,0.64c1.412,0,2.665-0.805,3.266-2.111l2.171-4.688c0.058-0.119,0.182-0.158,0.273-0.158
				c0.13,0,0.258,0.069,0.258,0.234v19.235c0,1.168,0.812,1.989,1.989,1.989c1.122,0,1.944-0.841,1.944-1.989v-5.214
				c0-0.508,0.521-0.949,0.95-0.949h16.391c0.508,0,0.989,0.458,0.989,0.949v5.214c0,1.168,0.84,1.989,2.039,1.989
				c1.175,0,1.991-0.821,1.991-1.989v-23.357c0-1.919-1.508-3.367-3.504-3.367h-19.094c-0.222,0-0.409-0.101-0.525-0.277
				c-0.122-0.179-0.135-0.403-0.053-0.601l0.997-2.185c0.224-0.567,0.804-1.013,1.335-1.013h23.782c1.158,0,2.042-0.878,2.042-2.036
				C1007.735,455.394,1006.878,454.52,1005.693,454.52z M997.735,470.774h-16.391c-0.47,0-0.95-0.516-0.95-0.997v-2.039
				c0-0.48,0.48-0.992,0.95-0.992h16.391c0.491,0,0.989,0.497,0.989,0.992v2.039C998.725,470.268,998.227,470.774,997.735,470.774z
				 M981.345,474.895h16.391c0.491,0,0.989,0.501,0.989,0.993v2.181c0,0.481-0.481,0.943-0.989,0.943h-16.391
				c-0.43,0-0.95-0.436-0.95-0.943v-2.181C980.395,475.41,980.875,474.895,981.345,474.895z"/>
			<path fill="#24A4A3" d="M1049.378,471.859h-5.643c-0.177,0-0.348-0.098-0.464-0.26c-0.129-0.169-0.169-0.388-0.106-0.575
				l0.809-2.462c0.157-0.458,0.083-0.973-0.212-1.389c-0.293-0.415-0.768-0.665-1.253-0.665c-1.284,0-2.399,0.795-2.841,2.021
				l-0.854,2.465c-0.191,0.525-0.656,0.864-1.183,0.864h-7.399c-0.538,0-1.049-0.353-1.231-0.864l-0.945-2.465
				c-0.436-1.207-1.601-2.021-2.888-2.021c-0.502,0-0.953,0.23-1.251,0.643c-0.3,0.418-0.383,0.964-0.211,1.454l0.897,2.419
				c0.062,0.202,0.037,0.42-0.089,0.595c-0.119,0.154-0.287,0.24-0.479,0.24h-5.738c-1.094,0-1.986,0.917-1.986,2.043
				c0,1.122,0.893,2.035,1.986,2.035h12.602c0.501,0,0.903,0.373,0.903,0.851v2.792c0,0.502-0.412,0.903-0.903,0.903h-8.81
				c-1.158,0-2.089,0.915-2.089,2.04c0,1.172,0.917,2.085,2.089,2.085h8.81c0.501,0,0.903,0.373,0.903,0.852v3.93
				c0,1.151,0.91,2.088,2.032,2.088c1.165,0,2.086-0.918,2.086-2.088v-3.93c0-0.496,0.36-0.852,0.857-0.852h8.855
				c1.122,0,2.039-0.94,2.039-2.085c0-1.125-0.917-2.04-2.039-2.04h-8.855c-0.481,0-0.857-0.393-0.857-0.903v-2.792
				c0-0.49,0.36-0.851,0.857-0.851h12.601c1.119,0,2.039-0.913,2.039-2.035C1051.417,472.776,1050.497,471.859,1049.378,471.859z"/>
			<path fill="#24A4A3" d="M1050.56,461.11h-13.782c-0.469,0-0.857-0.387-0.857-0.857v-1.849c0-0.491,0.36-0.848,0.857-0.848h10.186
				c1.099,0,2.043-0.957,2.043-2.089c0-1.148-0.918-2.082-2.043-2.082h-10.479c-0.341,0-0.564-0.207-0.564-0.521v-0.333
				c0-1.168-0.921-2.088-2.086-2.088c-1.122,0-2.032,0.939-2.032,2.088v0.333c0,0.29-0.254,0.521-0.571,0.521h-10.518
				c-1.122,0-2.039,0.934-2.039,2.082c0,1.132,0.934,2.089,2.039,2.089h10.186c0.515,0,0.903,0.364,0.903,0.848v1.849
				c0,0.465-0.415,0.857-0.903,0.857h-13.788c-1.152,0-2.08,0.91-2.08,2.033c0,1.17,0.912,2.083,2.08,2.083h33.449
				c1.171,0,2.084-0.913,2.084-2.083C1052.644,462.02,1051.71,461.11,1050.56,461.11z"/>
		</g>
		<g>
			<path fill="#24A4A3" d="M886.813,504.919l2.369,0.749c-0.361,1.323-0.96,2.304-1.81,2.942c-0.846,0.641-1.918,0.96-3.212,0.96
				c-1.606,0-2.925-0.548-3.963-1.643c-1.031-1.099-1.555-2.6-1.555-4.5c0-2.013,0.525-3.577,1.573-4.691
				c1.033-1.112,2.396-1.67,4.091-1.67c1.475,0,2.679,0.438,3.606,1.312c0.545,0.513,0.965,1.254,1.237,2.228l-2.412,0.573
				c-0.146-0.619-0.452-1.118-0.903-1.483c-0.451-0.36-1.002-0.545-1.654-0.545c-0.895,0-1.617,0.323-2.178,0.963
				c-0.557,0.645-0.839,1.687-0.839,3.128c0,1.531,0.275,2.621,0.829,3.27c0.545,0.648,1.265,0.971,2.137,0.971
				c0.652,0,1.211-0.201,1.682-0.613C886.277,506.458,886.604,505.806,886.813,504.919z"/>
			<path fill="#24A4A3" d="M895.935,497.276v4.442c0.753-0.874,1.646-1.311,2.681-1.311c0.538,0,1.019,0.097,1.449,0.292
				c0.43,0.201,0.746,0.459,0.971,0.763c0.215,0.31,0.367,0.648,0.442,1.025c0.083,0.373,0.116,0.954,0.116,1.738v5.137h-2.323
				v-4.626c0-0.916-0.038-1.497-0.122-1.752c-0.09-0.243-0.242-0.441-0.465-0.586c-0.229-0.146-0.502-0.215-0.84-0.215
				c-0.387,0-0.729,0.093-1.033,0.274c-0.299,0.197-0.524,0.472-0.663,0.852c-0.142,0.372-0.213,0.933-0.213,1.666v4.387h-2.312
				v-12.087H895.935z"/>
			<path fill="#24A4A3" d="M908.051,503.279l-2.105-0.381c0.237-0.846,0.642-1.474,1.224-1.879c0.571-0.412,1.429-0.611,2.567-0.611
				c1.036,0,1.807,0.119,2.312,0.366c0.508,0.245,0.859,0.556,1.07,0.932c0.202,0.376,0.31,1.069,0.31,2.075l-0.027,2.706
				c0,0.771,0.033,1.339,0.111,1.705c0.073,0.363,0.213,0.756,0.418,1.171h-2.295c-0.058-0.147-0.137-0.382-0.229-0.68
				c-0.039-0.141-0.062-0.23-0.076-0.273c-0.398,0.387-0.818,0.678-1.27,0.867c-0.456,0.192-0.936,0.285-1.446,0.285
				c-0.894,0-1.606-0.241-2.132-0.733c-0.518-0.487-0.777-1.104-0.777-1.857c0-0.491,0.121-0.933,0.355-1.319
				c0.234-0.39,0.569-0.688,0.986-0.891c0.431-0.208,1.046-0.387,1.846-0.541c1.083-0.204,1.84-0.396,2.258-0.567v-0.235
				c0-0.444-0.111-0.759-0.33-0.952c-0.218-0.188-0.639-0.281-1.25-0.281c-0.408,0-0.729,0.079-0.956,0.24
				C908.377,502.586,908.194,502.874,908.051,503.279z M911.15,505.161c-0.296,0.099-0.768,0.218-1.414,0.352
				c-0.641,0.14-1.064,0.275-1.264,0.404c-0.295,0.217-0.447,0.488-0.447,0.82c0,0.325,0.122,0.601,0.361,0.839
				c0.244,0.235,0.544,0.356,0.921,0.356c0.415,0,0.815-0.14,1.198-0.412c0.278-0.208,0.467-0.462,0.55-0.77
				c0.058-0.198,0.095-0.574,0.095-1.128V505.161z"/>
			<path fill="#24A4A3" d="M926.039,509.363h-2.312v-4.47c0-0.94-0.052-1.554-0.151-1.832c-0.095-0.276-0.262-0.494-0.482-0.646
				c-0.227-0.159-0.484-0.231-0.799-0.231c-0.4,0-0.764,0.109-1.085,0.327c-0.318,0.217-0.541,0.512-0.658,0.874
				c-0.112,0.359-0.179,1.033-0.179,2.012v3.966h-2.317v-8.756h2.154v1.286c0.77-0.992,1.724-1.485,2.891-1.485
				c0.513,0,0.979,0.09,1.407,0.275c0.42,0.188,0.736,0.419,0.96,0.709c0.206,0.28,0.366,0.604,0.45,0.968
				c0.083,0.362,0.121,0.883,0.121,1.563V509.363z"/>
			<path fill="#24A4A3" d="M930.549,509.944l2.647,0.32c0.045,0.311,0.144,0.525,0.304,0.634c0.22,0.168,0.564,0.252,1.036,0.252
				c0.608,0,1.064-0.091,1.362-0.272c0.209-0.121,0.361-0.32,0.468-0.583c0.071-0.194,0.102-0.552,0.102-1.068v-1.275
				c-0.689,0.941-1.565,1.412-2.623,1.412c-1.178,0-2.108-0.494-2.796-1.487c-0.54-0.785-0.805-1.77-0.805-2.943
				c0-1.462,0.353-2.586,1.055-3.358c0.705-0.778,1.586-1.166,2.641-1.166c1.084,0,1.979,0.477,2.686,1.424v-1.225h2.168v7.86
				c0,1.035-0.086,1.807-0.263,2.322c-0.173,0.507-0.405,0.913-0.716,1.2c-0.304,0.29-0.722,0.521-1.231,0.688
				c-0.515,0.16-1.167,0.246-1.954,0.246c-1.479,0-2.537-0.26-3.158-0.763c-0.623-0.514-0.932-1.157-0.932-1.938
				C930.539,510.149,930.541,510.05,930.549,509.944z M932.615,504.804c0,0.931,0.18,1.609,0.537,2.042
				c0.363,0.436,0.81,0.646,1.33,0.646c0.576,0,1.049-0.213,1.439-0.662c0.393-0.441,0.589-1.095,0.589-1.968
				c0-0.903-0.19-1.58-0.559-2.021c-0.378-0.439-0.845-0.656-1.426-0.656c-0.55,0-1.011,0.215-1.374,0.644
				C932.795,503.26,932.615,503.916,932.615,504.804z"/>
			<path fill="#24A4A3" d="M948.517,506.579l2.311,0.39c-0.291,0.843-0.766,1.487-1.403,1.933c-0.643,0.444-1.444,0.661-2.403,0.661
				c-1.526,0-2.653-0.496-3.381-1.492c-0.579-0.791-0.87-1.802-0.87-3.016c0-1.455,0.379-2.589,1.141-3.412
				c0.754-0.824,1.717-1.234,2.877-1.234c1.309,0,2.328,0.431,3.083,1.291c0.756,0.858,1.112,2.182,1.081,3.96h-5.806
				c0.015,0.683,0.208,1.217,0.561,1.6c0.365,0.384,0.808,0.571,1.34,0.571c0.362,0,0.668-0.097,0.91-0.291
				C948.203,507.333,948.395,507.018,948.517,506.579z M948.649,504.237c-0.015-0.674-0.183-1.182-0.524-1.531
				c-0.33-0.346-0.725-0.521-1.197-0.521c-0.506,0-0.926,0.179-1.252,0.548c-0.328,0.369-0.494,0.867-0.49,1.505H948.649z"/>
			<path fill="#24A4A3" d="M965.156,509.363v-5.084l-4.435-7.003h2.866l2.842,4.782l2.789-4.782h2.817l-4.447,7.018v5.069H965.156z"
				/>
			<path fill="#24A4A3" d="M973.808,504.862c0-0.768,0.188-1.516,0.568-2.236c0.383-0.718,0.914-1.271,1.617-1.648
				c0.688-0.383,1.464-0.569,2.328-0.569c1.324,0,2.405,0.431,3.251,1.291c0.848,0.858,1.27,1.951,1.27,3.265
				c0,1.325-0.425,2.421-1.279,3.292c-0.855,0.874-1.928,1.307-3.228,1.307c-0.805,0-1.571-0.182-2.296-0.542
				c-0.733-0.363-1.28-0.894-1.663-1.6C973.996,506.72,973.808,505.87,973.808,504.862z M976.183,504.985
				c0,0.868,0.202,1.535,0.618,1.996c0.412,0.466,0.921,0.693,1.521,0.693c0.604,0,1.119-0.228,1.524-0.693
				c0.416-0.461,0.614-1.128,0.614-2.016c0-0.851-0.198-1.512-0.614-1.98c-0.405-0.454-0.92-0.688-1.524-0.688
				c-0.6,0-1.108,0.234-1.521,0.688C976.385,503.454,976.183,504.118,976.183,504.985z"/>
			<path fill="#24A4A3" d="M992.793,509.363v-1.309c-0.319,0.472-0.735,0.834-1.254,1.104c-0.522,0.269-1.068,0.404-1.652,0.404
				s-1.112-0.13-1.577-0.389c-0.472-0.259-0.809-0.618-1.017-1.086c-0.209-0.466-0.313-1.116-0.313-1.938v-5.543h2.317v4.028
				c0,1.229,0.042,1.983,0.128,2.261c0.081,0.276,0.234,0.497,0.462,0.659c0.23,0.165,0.515,0.245,0.864,0.245
				c0.393,0,0.749-0.108,1.059-0.32c0.32-0.228,0.524-0.495,0.646-0.816c0.115-0.319,0.168-1.11,0.168-2.364v-3.692h2.324v8.756
				H992.793z"/>
			<path fill="#24A4A3" d="M1001.933,509.363h-2.316v-8.756h2.15v1.243c0.371-0.59,0.698-0.977,0.997-1.164
				c0.29-0.185,0.624-0.278,0.994-0.278c0.531,0,1.046,0.153,1.53,0.437l-0.712,2.025c-0.396-0.257-0.761-0.382-1.09-0.382
				c-0.326,0-0.604,0.089-0.825,0.267c-0.228,0.182-0.399,0.503-0.536,0.971c-0.129,0.468-0.192,1.444-0.192,2.933V509.363z"/>
			<path fill="#24A4A3" d="M1015.791,509.363v-11.988h2.444v9.953h6.067v2.035H1015.791z"/>
			<path fill="#24A4A3" d="M1028.397,499.42v-2.145h2.322v2.145H1028.397z M1028.397,509.363v-8.756h2.322v8.756H1028.397z"/>
			<path fill="#24A4A3" d="M1034.445,500.607h1.28v-0.66c0-0.735,0.081-1.287,0.243-1.653c0.149-0.358,0.442-0.656,0.865-0.884
				c0.414-0.23,0.949-0.343,1.597-0.343c0.66,0,1.311,0.099,1.933,0.294l-0.312,1.616c-0.374-0.085-0.724-0.129-1.066-0.129
				c-0.336,0-0.574,0.076-0.719,0.237c-0.146,0.154-0.222,0.457-0.222,0.901v0.62h1.731v1.82h-1.731v6.936h-2.318v-6.936h-1.28
				V500.607z"/>
			<path fill="#24A4A3" d="M1048.521,506.579l2.31,0.39c-0.293,0.843-0.763,1.487-1.405,1.933c-0.637,0.444-1.446,0.661-2.409,0.661
				c-1.521,0-2.646-0.496-3.378-1.492c-0.575-0.791-0.869-1.802-0.869-3.016c0-1.455,0.38-2.589,1.139-3.412
				c0.763-0.824,1.723-1.234,2.881-1.234c1.307,0,2.326,0.431,3.089,1.291c0.758,0.858,1.11,2.182,1.082,3.96h-5.812
				c0.012,0.683,0.205,1.217,0.559,1.6c0.363,0.384,0.801,0.571,1.339,0.571c0.36,0,0.666-0.097,0.918-0.291
				C1048.21,507.333,1048.396,507.018,1048.521,506.579z M1048.655,504.237c-0.017-0.674-0.188-1.182-0.527-1.531
				c-0.33-0.346-0.729-0.521-1.198-0.521c-0.508,0-0.924,0.179-1.254,0.548c-0.323,0.369-0.502,0.867-0.488,1.505H1048.655z"/>
		</g>
	</g>
</g>
<path fill="#FFFFFF" d="M712.761,239.277c-1.427,0-2.797,0.264-4.063,0.728c-2.429-4.893-7.462-8.269-13.29-8.269
	c-6.454,0-11.925,4.121-13.976,9.868c-1.969-1.457-4.398-2.328-7.039-2.328c-6.405,0-11.611,5.073-11.852,11.416h62.071
	C724.371,244.35,719.165,239.277,712.761,239.277z"/>
<path fill="#FFFFFF" d="M1161.995,227.201c-1.427,0-2.797,0.264-4.063,0.728c-2.429-4.893-7.462-8.269-13.29-8.269
	c-6.454,0-11.925,4.121-13.976,9.868c-1.969-1.457-4.398-2.328-7.039-2.328c-6.405,0-11.611,5.073-11.852,11.416h62.071
	C1173.605,232.274,1168.399,227.201,1161.995,227.201z"/>
<path fill="#FFFFFF" d="M1397.667,254.673c-1.428,0-2.798,0.264-4.063,0.728c-2.429-4.893-7.462-8.268-13.291-8.268
	c-6.453,0-11.925,4.121-13.975,9.868c-1.969-1.457-4.399-2.328-7.038-2.328c-6.407,0-11.613,5.073-11.854,11.416h62.071
	C1409.277,259.746,1404.071,254.673,1397.667,254.673z"/>
<path fill="#FFFFFF" d="M500.439,268.066c-1.428,0-2.798,0.264-4.063,0.728c-2.429-4.893-7.462-8.268-13.291-8.268
	c-6.453,0-11.925,4.121-13.975,9.868c-1.969-1.457-4.399-2.328-7.038-2.328c-6.407,0-11.613,5.073-11.854,11.416h62.071
	C512.05,273.139,506.844,268.066,500.439,268.066z"/>
<path fill="#FFFFFF" d="M612.879,225.888c-1.916,0-3.754,0.353-5.455,0.977c-3.261-6.569-10.02-11.102-17.845-11.102
	c-8.665,0-16.01,5.533-18.763,13.249c-2.644-1.956-5.907-3.124-9.451-3.124c-8.602,0-15.59,6.809-15.914,15.328h83.34
	C628.468,232.697,621.479,225.888,612.879,225.888z"/>
<path fill="#FFFFFF" d="M1454.946,290.141c-1.916,0-3.754,0.353-5.455,0.977c-3.261-6.569-10.02-11.102-17.845-11.102
	c-8.665,0-16.01,5.533-18.763,13.249c-2.644-1.956-5.907-3.124-9.451-3.124c-8.602,0-15.59,6.809-15.914,15.328h83.34
	C1470.535,296.95,1463.546,290.141,1454.946,290.141z"/>
<path fill="#FFFFFF" d="M915.417,200.435c-1.918,0-3.756,0.353-5.456,0.977c-3.261-6.569-10.019-11.102-17.845-11.102
	c-8.666,0-16.011,5.533-18.764,13.249c-2.644-1.956-5.907-3.124-9.451-3.124c-8.601,0-15.59,6.81-15.913,15.328h83.339
	C931.004,207.245,924.015,200.435,915.417,200.435z"/>
<g>
	<path fill="#4C8E67" d="M1095.476,460.947c-8.897,0-72.256,112.19-72.256,112.19h144.511
		C1167.73,573.137,1104.373,460.947,1095.476,460.947z"/>
	<path fill="#FFFFFF" d="M1082.228,483.951c0,0-1.876,9.079,3.757,10.893c5.635,1.817,8.506-10.691,8.506-10.691
		s4.151,12.006,10.083,10.493c5.929-1.513,1.975-11.906,1.975-11.906s4.188,10.041,11.863,7.681
		c-10.814-16.811-19.948-29.473-22.936-29.473c-3.159,0-13.173,14.127-24.779,32.353
		C1074.854,494.411,1082.228,483.951,1082.228,483.951z"/>
</g>
<g>
	<path fill="#4C8E67" d="M1263.967,463.503c-8.696,0-70.61,109.634-70.61,109.634h141.218
		C1334.574,573.137,1272.66,463.503,1263.967,463.503z"/>
	<path fill="#FFFFFF" d="M1251.02,485.983c0,0-1.833,8.872,3.672,10.645c5.506,1.776,8.312-10.448,8.312-10.448
		s4.057,11.732,9.854,10.255c5.793-1.479,1.929-11.635,1.929-11.635s4.094,9.812,11.594,7.505
		c-10.568-16.427-19.492-28.801-22.412-28.801c-3.087,0-12.874,13.805-24.216,31.615
		C1243.814,496.204,1251.02,485.983,1251.02,485.983z"/>
</g>
<g>
	<path fill="#61BB98" d="M1172.695,487.404c-7.482,0-60.778,94.371-60.778,94.371h121.558
		C1233.475,581.775,1180.182,487.404,1172.695,487.404z"/>
	<path fill="#FFFFFF" d="M1161.555,506.753c0,0-1.581,7.639,3.158,9.165c4.738,1.527,7.152-8.994,7.152-8.994
		s3.492,10.097,8.48,8.824c4.99-1.274,1.664-10.013,1.664-10.013s3.521,8.442,9.977,6.458c-9.093-14.136-16.777-24.79-19.291-24.79
		c-2.656,0-11.077,11.883-20.844,27.215C1155.348,515.553,1161.555,506.753,1161.555,506.753z"/>
</g>
<path fill="#E66324" d="M646.894,389.805c-8.883,0-16.083,7.202-16.083,16.084s16.083,28.066,16.083,28.066
	s16.085-19.184,16.085-28.066S655.776,389.805,646.894,389.805z M646.894,414.015c-4.487,0-8.124-3.638-8.124-8.126
	c0-4.489,3.637-8.126,8.124-8.126c4.488,0,8.128,3.637,8.128,8.126C655.021,410.377,651.382,414.015,646.894,414.015z"/>
<path fill="#E66324" d="M546.598,334.69c-10.836,0-19.619,8.785-19.619,19.621s19.619,34.238,19.619,34.238
	s19.623-23.402,19.623-34.238S557.434,334.69,546.598,334.69z M546.598,364.224c-5.474,0-9.91-4.438-9.91-9.913
	c0-5.476,4.437-9.913,9.91-9.913c5.475,0,9.916,4.437,9.916,9.913C556.514,359.786,552.072,364.224,546.598,364.224z"/>
<g>
	<g>
		<path fill="#F1A900" d="M616.706,492.474c0,0,24.213-29.109,30.666-45.838c6.458,16.729,30.67,45.838,30.67,45.838H616.706z"/>
		<path fill="#717071" d="M643.39,492.474c0,0,3.146-18.982,3.982-29.89c0.842,10.907,3.983,29.89,3.983,29.89H643.39z"/>
		<path fill="#F7CC5E" d="M647.372,446.636c0,0,0.276,24.975-11.532,44.215l7.55,1.623
			C643.39,492.474,649.296,459.968,647.372,446.636z"/>
		<path fill="#F7CC5E" d="M647.28,446.636c0,0-0.277,24.975,11.533,44.215l-7.553,1.623
			C651.261,492.474,645.356,459.968,647.28,446.636z"/>
		<path fill="#F7CC5E" d="M642.636,454.584c0,0,3.742-5.287,4.736-8.326c1.001,3.039,4.738,8.326,4.738,8.326H642.636z"/>
	</g>
</g>
<g>
	<g>
		<g>
			<g>
				<g>
					<g>
						<path fill="#4A8028" d="M623.94,611.33c0-0.05,0-0.095,0-0.141c0-39.562,7.498-71.63,16.748-71.63
							c9.251,0,16.748,32.067,16.748,71.63c0,0.046,0,0.091,0,0.141H623.94z"/>
						<polygon fill="#C3C000" points="652.71,596.039 642.69,607.827 642.781,611.33 639.459,611.33 639.886,596.726 
							629.618,584.647 639.998,592.978 640.771,566.583 636.014,560.989 640.82,564.85 641.216,551.305 641.877,576.577 
							647.562,572.012 641.932,578.639 642.596,604.162 						"/>
					</g>
					<g>
						<path fill="#AABD00" d="M588.571,611.33c0-0.05,0-0.095,0-0.141c0-39.562,7.5-71.63,16.747-71.63
							c9.253,0,16.75,32.067,16.75,71.63c0,0.046,0,0.091,0,0.141H588.571z"/>
						<polygon fill="#C3C000" points="617.342,596.039 607.324,607.827 607.412,611.33 604.088,611.33 604.518,596.726 
							594.25,584.647 604.628,592.978 605.4,566.583 600.646,560.989 605.452,564.85 605.848,551.305 606.508,576.577 
							612.192,572.012 606.559,578.639 607.224,604.162 						"/>
					</g>
					<g>
						<path fill="#7AB80A" d="M650.27,611.33c0.044-29.791,5.705-53.888,12.682-53.888c6.975,0,12.638,24.097,12.68,53.888H650.27z"
							/>
						<polygon fill="#9CC730" points="672.054,600.205 664.466,609.131 664.522,611.33 662.033,611.33 662.343,600.726 
							654.57,591.58 662.426,597.891 663.011,577.907 659.415,573.672 663.049,576.593 663.352,566.337 663.852,585.47 
							668.157,582.014 663.892,587.033 664.393,606.353 						"/>
					</g>
					<g>
						<path fill="#7AB80A" d="M510.013,611.33c0.042-29.791,5.704-53.888,12.68-53.888s12.638,24.097,12.68,53.888H510.013z"/>
						<polygon fill="#9CC730" points="531.795,600.205 524.207,609.131 524.264,611.33 521.773,611.33 522.086,600.726 
							514.311,591.58 522.168,597.891 522.752,577.907 519.152,573.672 522.793,576.593 523.092,566.337 523.59,585.47 
							527.898,582.014 523.632,587.033 524.134,606.353 						"/>
					</g>
					<g>
						<path fill="#4A8028" d="M533.074,611.33c0.092-40.573,7.811-73.346,17.321-73.346c9.506,0,17.224,32.772,17.315,73.346
							H533.074z"/>
						<polygon fill="#9CC730" points="562.827,596.39 552.461,608.587 552.535,611.33 549.146,611.33 549.562,597.104 
							538.946,584.614 549.678,593.23 550.479,565.935 545.561,560.152 550.53,564.138 550.939,550.132 551.623,576.27 
							557.504,571.546 551.677,578.401 552.365,604.792 						"/>
					</g>
					<g>
						<path fill="#5FA12C" d="M562.055,611.33c0.044-29.791,5.703-53.888,12.68-53.888c6.979,0,12.639,24.097,12.682,53.888H562.055
							z"/>
						<polygon fill="#9CC730" points="583.84,600.205 576.25,609.131 576.308,611.33 573.818,611.33 574.128,600.726 
							566.354,591.58 574.213,597.891 574.797,577.907 571.197,573.672 574.837,576.593 575.133,566.337 575.633,585.47 
							579.938,582.014 575.674,587.033 576.181,606.353 						"/>
					</g>
				</g>
			</g>
			<g>
				<g>
					<path fill="#AABD00" d="M903.798,611.33c0-0.05,0-0.095,0-0.141c0-39.562,7.501-71.63,16.749-71.63
						c9.252,0,16.749,32.067,16.749,71.63c0,0.046,0,0.091,0,0.141H903.798z"/>
					<polygon fill="#C3C000" points="932.569,596.039 922.551,607.827 922.641,611.33 919.318,611.33 919.744,596.726 
						909.478,584.647 919.855,592.978 920.627,566.583 915.877,560.989 920.68,564.85 921.078,551.305 921.736,576.577 
						927.424,572.012 921.788,578.639 922.453,604.162 					"/>
				</g>
				<g>
					<path fill="#7AB80A" d="M889.658,611.33c0.042-29.791,5.703-53.888,12.682-53.888c6.976,0,12.636,24.097,12.679,53.888H889.658
						z"/>
					<polygon fill="#9CC730" points="911.445,600.205 903.855,609.131 903.909,611.33 901.422,611.33 901.731,600.726 
						893.959,591.58 901.813,597.891 902.399,577.907 898.799,573.672 902.438,576.593 902.738,566.337 903.236,585.47 
						907.546,582.014 903.279,587.033 903.781,606.353 					"/>
				</g>
				<g>
					<path fill="#7AB80A" d="M796.448,611.33c0.043-29.791,5.7-53.888,12.679-53.888c6.977,0,12.639,24.097,12.679,53.888H796.448z"
						/>
					<polygon fill="#9CC730" points="818.23,600.205 810.643,609.131 810.7,611.33 808.209,611.33 808.521,600.726 800.746,591.58 
						808.604,597.891 809.189,577.907 805.59,573.672 809.23,576.593 809.526,566.337 810.024,585.47 814.334,582.014 
						810.066,587.033 810.57,606.353 					"/>
				</g>
				<g>
					<path fill="#4A8028" d="M819.51,611.33c0.092-40.573,7.811-73.346,17.317-73.346c9.51,0,17.228,32.772,17.317,73.346H819.51z"
						/>
					<polygon fill="#9CC730" points="849.263,596.39 838.896,608.587 838.969,611.33 835.58,611.33 835.999,597.104 
						825.381,584.614 836.111,593.23 836.914,565.935 831.996,560.152 836.966,564.138 837.374,550.132 838.057,576.27 
						843.938,571.546 838.108,578.401 838.801,604.792 					"/>
				</g>
				<g>
					<path fill="#5FA12C" d="M848.489,611.33c0.047-29.791,5.704-53.888,12.682-53.888c6.975,0,12.635,24.097,12.679,53.888H848.489
						z"/>
					<polygon fill="#9CC730" points="870.273,600.205 862.685,609.131 862.743,611.33 860.25,611.33 860.562,600.726 
						852.787,591.58 860.646,597.891 861.23,577.907 857.632,573.672 861.271,576.593 861.57,566.337 862.07,585.47 
						866.374,582.014 862.109,587.033 862.612,606.353 					"/>
				</g>
			</g>
		</g>
		<g>
			<g>
				<g>
					<path fill="#E66324" d="M849.586,606.114c0,0-85.244-96.618-107.971-152.146c-22.734,55.527-107.974,152.146-107.974,152.146
						H849.586z"/>
					<path fill="#F5CA5F" d="M821.225,606.114c0,0-62.852-96.618-79.609-152.146c-16.759,55.527-79.61,152.146-79.61,152.146
						H821.225z"/>
					<path fill="#896414" d="M755.636,606.114c0,0-11.068-63.006-14.021-99.208c-2.953,36.202-14.02,99.208-14.02,99.208H755.636z"
						/>
					<path fill="#EFA700" d="M741.615,453.968c0,0-0.967,82.902,40.611,146.762l-26.591,5.384
						C755.636,606.114,734.844,498.217,741.615,453.968z"/>
					<path fill="#EFA700" d="M741.953,453.968c0,0,0.967,82.902-40.611,146.762l26.59,5.384
						C727.932,606.114,748.719,498.217,741.953,453.968z"/>
					<path fill="#EEEA47" d="M758.296,480.339c0,0-13.173-17.542-16.681-27.627c-3.51,10.085-16.68,27.627-16.68,27.627H758.296z"/>
				</g>
				<path fill="none" stroke="#F0E144" stroke-linecap="round" stroke-linejoin="round" stroke-miterlimit="10" d="M741.615,452.712
					c0,0,95.156,133.818,209.287,160.267"/>
				<path fill="none" stroke="#F0E144" stroke-linecap="round" stroke-linejoin="round" stroke-miterlimit="10" d="M742.541,452.712
					c0,0-92.312,133.538-206.446,159.984"/>
			</g>
		</g>
	</g>
	<path fill="#839F00" d="M720.422,605.283c-76.602,0-148.442,2.021-210.408,5.561c43.02,2.061,124.465,3.454,217.865,3.454
		c87.607,0,164.689-1.226,209.417-3.08C873.883,607.448,799.709,605.283,720.422,605.283z"/>
</g>
<g>
	<ellipse fill="#85A100" cx="675.427" cy="651.982" rx="11.026" ry="2.201"/>
	<ellipse fill="#85A100" cx="722.84" cy="641.067" rx="26.954" ry="5.38"/>
</g>
<g>
	<path fill="#4A8028" d="M1308.864,597.105c0.092-39.552,7.614-71.498,16.884-71.498s16.79,31.946,16.881,71.498H1308.864z"/>
	<polygon fill="#9EC92F" points="1337.869,582.542 1327.766,594.431 1327.836,597.105 1324.531,597.105 1324.938,583.238 
		1314.587,571.062 1325.049,579.459 1325.829,552.853 1321.036,547.213 1325.881,551.101 1326.281,537.45 1326.943,562.926 
		1332.679,558.324 1326.998,565.006 1327.668,590.732 	"/>
</g>
<g>
	<path fill="#60A32B" d="M1337.117,597.105c0.042-29.043,5.559-52.53,12.36-52.53c6.801,0,12.318,23.487,12.36,52.53H1337.117z"/>
	<polygon fill="#9EC92F" points="1358.352,586.26 1350.954,594.963 1351.01,597.105 1348.582,597.105 1348.884,586.77 
		1341.307,577.853 1348.964,584.002 1349.538,564.523 1346.027,560.394 1349.574,563.242 1349.867,553.246 1350.354,571.897 
		1354.552,568.527 1350.395,573.417 1350.885,592.257 	"/>
</g>
<path fill="#839F00" d="M1319.624,594.263c21.461,0,41.588,1.709,58.947,4.698c-12.052,1.741-34.87,2.918-61.037,2.918
	c-24.542,0-46.137-1.035-58.668-2.602C1276.631,596.094,1297.411,594.263,1319.624,594.263z"/>
<g>
	<g>
		<g>
			<path fill="#AABD00" d="M1266.615,622.458c0-0.055,0-0.108,0-0.161c0-45.299-8.588-82.015-19.177-82.015
				c-10.592,0-19.178,36.716-19.178,82.015c0,0.053,0,0.106,0,0.161H1266.615z"/>
			<polygon fill="#C3C000" points="1233.672,604.95 1245.145,618.448 1245.042,622.458 1248.846,622.458 1248.356,605.737 
				1260.112,591.909 1248.23,601.446 1247.346,571.225 1252.786,564.822 1247.287,569.241 1246.831,553.733 1246.077,582.667 
				1239.564,577.441 1246.018,585.027 1245.256,614.252 			"/>
		</g>
		<g>
			<path fill="#7AB80A" d="M1282.806,622.458c-0.049-34.11-6.53-61.7-14.52-61.7c-7.987,0-14.47,27.59-14.519,61.7H1282.806z"/>
			<polygon fill="#9CC730" points="1257.861,609.721 1266.551,619.943 1266.488,622.458 1269.336,622.458 1268.982,610.319 
				1277.883,599.847 1268.889,607.072 1268.217,584.19 1272.339,579.341 1268.172,582.687 1267.829,570.944 1267.258,592.851 
				1262.324,588.894 1267.21,594.639 1266.635,616.762 			"/>
		</g>
		<g>
			<path fill="#5FA12C" d="M1187.956,622.458c-0.053-34.11-6.529-61.7-14.52-61.7c-7.985,0-14.466,27.59-14.517,61.7H1187.956z"/>
			<polygon fill="#9CC730" points="1163.014,609.721 1171.703,619.943 1171.637,622.458 1174.491,622.458 1174.134,610.319 
				1183.036,599.847 1174.037,607.072 1173.369,584.19 1177.489,579.341 1173.324,582.687 1172.979,570.944 1172.408,592.851 
				1167.479,588.894 1172.362,594.639 1171.785,616.762 			"/>
		</g>
	</g>
	<path fill="#839F00" d="M1198.2,619.127c33.057,0,64.058,1.708,90.798,4.698c-18.564,1.741-53.71,2.918-94.016,2.918
		c-37.806,0-71.067-1.035-90.37-2.602C1131.977,620.958,1163.986,619.127,1198.2,619.127z"/>
</g>
<g>
	<g>
		<path fill="#F5CA5F" d="M640.938,666.678c-5.8-13.649-26.297-32.469-50.665-32.431c-24.262,0.042-44.638,18.778-50.507,32.431
			H640.938z"/>
		<path fill="#EFA700" d="M640.931,666.678c-5.759-13.552-26.002-32.206-50.148-32.422v32.422H640.931z"/>
	</g>
	<g>
		<path fill="#96C011" d="M570.171,666.678c-3.503-8.06-17.063-19.54-33.261-19.54c-16.193,0-29.751,11.48-33.255,19.54H570.171z"/>
		<path opacity="0.53" fill="#82A600" d="M537.26,666.678h32.911c-3.476-8-16.869-19.366-32.911-19.532V666.678z"/>
	</g>
	<g>
		<path fill="#96C011" d="M604.146,673.638c-2.66-6.466-12.953-15.681-25.25-15.681c-12.295,0-22.588,9.215-25.25,15.681H604.146z"
			/>
		<path opacity="0.53" fill="#82A600" d="M579.162,673.638h24.984c-2.642-6.42-12.808-15.542-24.984-15.674V673.638z"/>
	</g>
</g>
<g>
	<g>
		<path fill="#F5CA5F" d="M804.688,433.39c-5.171-12.168-23.447-28.948-45.175-28.914c-21.633,0.038-39.801,16.744-45.035,28.914
			H804.688z"/>
		<path fill="#EFA700" d="M804.682,433.39c-5.135-12.081-23.184-28.713-44.713-28.906v28.906H804.682z"/>
	</g>
	<g>
		<path fill="#96C011" d="M741.59,433.39c-3.123-7.183-15.214-17.42-29.656-17.42c-14.439,0-26.527,10.237-29.651,17.42H741.59z"/>
		<path opacity="0.53" fill="#82A600" d="M712.246,433.39h29.344c-3.1-7.13-15.041-17.265-29.344-17.413V433.39z"/>
	</g>
	<g>
		<path fill="#96C011" d="M771.884,439.595c-2.372-5.765-11.55-13.978-22.513-13.978s-20.141,8.213-22.516,13.978H771.884z"/>
		<path opacity="0.53" fill="#82A600" d="M749.606,439.595h22.277c-2.355-5.724-11.42-13.854-22.277-13.973V439.595z"/>
	</g>
</g>
<g>
	<g>
		<path fill="#96C011" d="M1299.038,653.943c-3.229-7.431-15.734-18.017-30.669-18.017c-14.934,0-27.434,10.586-30.666,18.017
			H1299.038z"/>
		<path opacity="0.53" fill="#82A600" d="M1268.691,653.943h30.347c-3.206-7.376-15.556-17.857-30.347-18.011V653.943z"/>
	</g>
	<g>
		<path fill="#96C011" d="M1330.367,660.361c-2.453-5.963-11.943-14.458-23.282-14.458c-11.338,0-20.828,8.495-23.284,14.458
			H1330.367z"/>
		<path opacity="0.53" fill="#82A600" d="M1307.329,660.361h23.038c-2.435-5.919-11.81-14.33-23.038-14.453V660.361z"/>
	</g>
</g>
<path fill="#E66324" d="M1442.254,374.31c-8.003,0-14.491,6.488-14.491,14.491c0,8.002,14.491,25.287,14.491,25.287
	s14.49-17.285,14.49-25.287C1456.744,380.798,1450.256,374.31,1442.254,374.31z M1442.254,396.121c-4.044,0-7.322-3.278-7.322-7.32
	c0-4.044,3.278-7.322,7.322-7.322s7.32,3.278,7.32,7.322C1449.574,392.843,1446.298,396.121,1442.254,396.121z"/>
<path fill="#E66324" d="M1071.066,535.459c-12.644,0-22.892,10.252-22.892,22.894c0,12.641,22.892,39.942,22.892,39.942
	s22.889-27.302,22.889-39.942C1093.955,545.711,1083.707,535.459,1071.066,535.459z M1071.066,569.917
	c-6.391,0-11.564-5.178-11.564-11.563c0-6.389,5.174-11.564,11.564-11.564c6.387,0,11.565,5.176,11.565,11.564
	C1082.632,564.739,1077.453,569.917,1071.066,569.917z"/>
<g>
	<path fill="#98C20E" d="M777.547,287.674c-1.841-4.234-8.966-10.267-17.475-10.267c-8.51,0-15.635,6.033-17.474,10.267H777.547z"/>
	<path opacity="0.53" fill="#84A800" d="M760.256,287.674h17.291c-1.827-4.203-8.863-10.175-17.291-10.263V287.674z"/>
</g>
<g>
	<path fill="#98C20E" d="M644.567,316.316c-3.296-7.581-16.05-18.379-31.281-18.379s-27.987,10.799-31.28,18.379H644.567z"/>
	<path opacity="0.53" fill="#84A800" d="M613.613,316.316h30.954c-3.271-7.528-15.866-18.219-30.954-18.374V316.316z"/>
</g>
<g>
	<path fill="#7ABA06" d="M1029.94,680.295c0.05-36.148,6.918-65.383,15.383-65.383c8.469,0,15.336,29.234,15.386,65.383H1029.94z"/>
	<polygon fill="#9EC92F" points="1056.372,666.796 1047.163,677.629 1047.234,680.295 1044.211,680.295 1044.588,667.432 
		1035.155,656.332 1044.689,663.988 1045.399,639.74 1041.032,634.602 1045.446,638.146 1045.813,625.702 1046.416,648.918 
		1051.642,644.726 1046.464,650.814 1047.077,674.26 	"/>
</g>
<g>
	<path fill="#ACBF00" d="M1089.574,684.6c0.108-46.97,9.042-84.909,20.052-84.909c11.008,0,19.941,37.939,20.049,84.909H1089.574z"
		/>
	<polygon fill="#D5DB7C" points="1124.021,667.306 1112.021,681.422 1112.104,684.6 1108.181,684.6 1108.665,668.131 
		1096.374,653.671 1108.795,663.644 1109.723,632.045 1104.03,625.35 1109.783,629.967 1110.26,613.755 1111.048,644.012 
		1117.856,638.544 1111.11,646.48 1111.907,677.034 	"/>
</g>
<path fill="#85A100" d="M1049.19,675.13c-41.998,0-81.378,4.056-115.352,11.146c23.585,4.135,68.234,6.926,119.439,6.926
	c48.025,0,90.282-2.454,114.804-6.171C1133.319,679.475,1092.655,675.13,1049.19,675.13z"/>
<g>
	<g>
		<path fill="#F7CC5E" d="M1120.759,683.974c0,0-36-43.282-45.598-68.159c-9.602,24.877-45.601,68.159-45.601,68.159H1120.759z"/>
		<path fill="#717071" d="M1081.081,683.974c0,0-4.674-28.224-5.92-44.443c-1.245,16.22-5.92,44.443-5.92,44.443H1081.081z"/>
		<path fill="#F1A900" d="M1075.161,615.815c0,0-0.408,37.139,17.15,65.747l-11.23,2.412
			C1081.081,683.974,1072.302,635.639,1075.161,615.815z"/>
		<path fill="#F1A900" d="M1075.304,615.815c0,0,0.407,37.139-17.152,65.747l11.23,2.412
			C1069.382,683.974,1078.162,635.639,1075.304,615.815z"/>
		<path fill="#F1A900" d="M1082.206,627.633c0,0-5.562-7.86-7.045-12.378c-1.484,4.518-7.045,12.378-7.045,12.378H1082.206z"/>
	</g>
</g>
<path fill="#839F00" d="M1218.788,326.638c26.837,0,52.005,1.709,73.714,4.698c-15.07,1.741-43.604,2.918-76.327,2.918
	c-30.689,0-57.692-1.035-73.364-2.602C1165.025,328.469,1191.012,326.638,1218.788,326.638z"/>
<rect x="360" y="-70.35" display="none" fill="none" stroke="#E60012" stroke-width="3" stroke-miterlimit="10" width="1200" height="1784.351"/>
</svg>
